<?xml version="1.0" standalone="no"?>
<!DOCTYPE svg PUBLIC "-//W3C//DTD SVG 1.1//EN" "http://www.w3.org/Graphics/SVG/1.1/DTD/svg11.dtd" >
<svg xmlns="http://www.w3.org/2000/svg">
<metadata></metadata>
<defs>
<font id="Webfont&" horiz-adv-x="1785" >
<font-face units-per-em="2048" ascent="1552" descent="-496" />
<missing-glyph horiz-adv-x="634" />
<glyph horiz-adv-x="2048" />
<glyph horiz-adv-x="2048" />
<glyph unicode="&#xd;" horiz-adv-x="681" />
<glyph unicode=" "  horiz-adv-x="634" />
<glyph unicode="&#x09;" horiz-adv-x="634" />
<glyph unicode="&#xa0;" horiz-adv-x="634" />
<glyph unicode="!" horiz-adv-x="458" d="M123 -231.5q0 38.5 31.5 68.5t74.5 30t75 -30t32 -68.5t-31 -67.5t-75 -29t-75.5 29t-31.5 67.5zM150 1569q0 57 15 78.5t64.5 21.5t65.5 -21.5t16 -78.5q0 -195 -63 -1553h-37q-61 1321 -61 1553z" />
<glyph unicode="&#x22;" horiz-adv-x="495" d="M61 1630q0 33 25 56.5t58.5 23.5t57 -23.5t23.5 -55t-31.5 -155t-37.5 -186.5h-29q-6 61 -36 184t-30 156zM270 1631q0 32 24.5 55.5t59.5 23.5t57.5 -23.5t22.5 -55t-29.5 -156t-37.5 -185.5h-29q-6 61 -37 185t-31 156z" />
<glyph unicode="#" horiz-adv-x="1273" d="M61 211v37h308v575h-308v37h308v430h123v-430h290v430h123v-430h307v-37h-307v-575h307v-37h-307v-356l-123 -74v430h-290v-356l-123 -74v430h-308zM492 248h290v575h-290v-575z" />
<glyph unicode="$" horiz-adv-x="1275" d="M61 260q0 111 64.5 195t159.5 84q59 0 93 -31t34 -72t-28 -71.5t-71 -30.5t-69.5 25.5t-38.5 25.5q-37 0 -61.5 -48t-24.5 -110q0 -176 124 -274t298 -115v891q-175 73 -251.5 137t-106 127.5t-29.5 141.5q0 150 109.5 254t277.5 133v133h34v-129q37 6 71 6t87 -4v127h35 v-131q141 -23 229 -91.5t88 -162.5q0 -61 -31.5 -93t-70.5 -32t-61.5 21.5t-22.5 57.5t33 58q23 18 22 39q0 61 -49 106.5t-137 63.5v-715q102 -43 170 -78.5t138 -91.5q143 -112 143 -286.5t-119 -316.5t-332 -185v-146h-35v140q-63 -12 -137 -13h-21v-127h-34v129 q-207 18 -343.5 143.5t-136.5 315.5zM248 1210q0 -117 76.5 -193.5t216.5 -142.5v619q-129 -25 -211 -95.5t-82 -187.5zM575 -164l27 -2q63 0 131 10v805q-10 4 -158 64v-877zM575 858l158 -67v706q-37 6 -78 6t-80 -6v-639zM768 -150q178 37 261 149t83 251t-90 226 t-254 159v-785z" />
<glyph unicode="%" horiz-adv-x="1347" d="M41 -184l1210 1710h56l-1213 -1710h-53zM127 1100q0 127 87 213t200.5 86t190.5 -82t77 -209t-87 -213t-200.5 -86t-190.5 82t-77 209zM250 1110q0 -102 35.5 -187t110.5 -85t119 78.5t44 181t-36 187.5t-110.5 85t-118.5 -79t-44 -181zM666 233q0 127 87 213t200.5 86 t190.5 -81.5t77 -208.5t-87 -213t-200.5 -86t-190.5 81.5t-77 208.5zM788 243.5q0 -102.5 36 -187.5t111 -85t119 79t44 181.5t-36 187.5t-111 85t-119 -79t-44 -181.5z" />
<glyph unicode="&#x26;" horiz-adv-x="1370" d="M43 328q0 154 125 298q101 118 240 238q-164 291 -164 492q0 160 95 257t215 97t201 -77t81 -211t-82 -248.5t-232 -253.5q61 -109 176 -273q211 -311 342 -448q184 178 185 428q0 78 -32 128t-63 50q-8 0 -33.5 -27.5t-58.5 -27.5t-59.5 26.5t-26.5 68.5t30 75.5 t85 33.5q78 0 138.5 -85t60.5 -220q0 -283 -203 -475q113 -115 179 -115t114 45l14 -16q-96 -98 -195 -98t-212 104q-195 -129 -428.5 -129t-362.5 93.5t-129 269.5zM172 358q0 -156 104.5 -258t268.5 -102q209 0 393 119q-137 135 -346 452q-111 166 -166 262 q-254 -242 -254 -473zM332 1444q0 -197 172 -494q229 217 229 443q0 135 -57.5 208.5t-153.5 73.5q-63 0 -126.5 -61t-63.5 -170z" />
<glyph unicode="'" horiz-adv-x="286" d="M61 1630q0 33 25 56.5t58.5 23.5t57 -23.5t23.5 -55t-31.5 -155t-37.5 -186.5h-29q-6 61 -36 184t-30 156z" />
<glyph unicode="(" horiz-adv-x="614" d="M102 657.5q0 364.5 114 681t265 537.5l31 -27q-127 -201 -193.5 -513t-66.5 -679q0 -778 260 -1189l-31 -27q-152 221 -265.5 536.5t-113.5 680z" />
<glyph unicode=")" horiz-adv-x="614" d="M102 -532q260 411 260 1189q0 367 -66.5 679.5t-193.5 512.5l31 27q152 -221 265.5 -537.5t113.5 -681t-113.5 -680t-265.5 -536.5z" />
<glyph unicode="*" horiz-adv-x="708" d="M61 1306.5q0 24.5 14.5 46t41.5 21.5t219 -129q-33 186 -33 236.5t56 50.5t57 -53q0 -37 -41 -232q186 127 223 127q20 0 34.5 -21.5t14.5 -46t-34 -40.5t-222 -58q170 -137 180 -147t10.5 -34t-20.5 -38q-18 -18 -40 -18t-38 20q-27 27 -129 203q-106 -180 -129 -203 q-16 -20 -37.5 -20t-40.5 18q-20 14 -20 38t20.5 45.5t167.5 135.5q-195 43 -223 60q-31 14 -31 38.5z" />
<glyph unicode="+" horiz-adv-x="886" d="M61 442v39h314v322l137 74v-396h313v-39h-313v-374h-137v374h-314z" />
<glyph unicode="," horiz-adv-x="335" d="M61 79q0 40 29 69.5t76 29.5t77.5 -30.5t30.5 -95.5t-55 -154t-133 -156l-16 18q57 49 99 118t46 110q-18 -6 -56 -6.5t-68 28.5t-30 69z" />
<glyph unicode="-" horiz-adv-x="761" d="M61 410l60 104h579l-59 -104h-580z" />
<glyph unicode="." horiz-adv-x="335" d="M61 80q0 39 32 68.5t75 29.5t74.5 -29.5t31.5 -68.5t-30.5 -67.5t-74.5 -28.5t-76 28.5t-32 67.5z" />
<glyph unicode="/" horiz-adv-x="559" d="M-61 -535l639 2417h43l-639 -2417h-43z" />
<glyph unicode="0" horiz-adv-x="1634" d="M61 678q0 236 94.5 435.5t273.5 322.5t406.5 123t398.5 -124t255 -322t84 -434.5t-94.5 -442t-274.5 -333.5t-405 -128q-170 0 -312.5 74.5t-233.5 200.5q-192 266 -192 628zM213 682q0 -438 203 -688q69 -84 171.5 -134t229.5 -50t229.5 44t172 121.5t115.5 188.5 q87 208 87 518q0 352 -140 586q-71 118 -189.5 187t-274.5 69q-211 0 -349 -112t-196.5 -295t-58.5 -435z" />
<glyph unicode="1" horiz-adv-x="587" d="M82 1237l252 289h53v-1671h119v-39h-363v39h117v1525l-151 -172z" />
<glyph unicode="2" horiz-adv-x="1312" d="M41 -143q72 98 208 213.5t265 215t252 215t198.5 259t75.5 303.5q0 221 -117.5 349t-299 128t-318.5 -118t-137 -300q0 -61 23.5 -112.5t60.5 -51.5q12 0 44 26t70 26t64.5 -27t26.5 -69.5t-43 -75.5t-121 -33t-131 82t-53 196q0 203 154.5 348.5t373.5 145.5 q143 0 255 -47t175 -126q127 -159 127 -362q0 -147 -78 -282t-207 -246t-264 -205t-285.5 -204.5t-234.5 -200.5q182 90 401 90q78 0 289 -18.5t268.5 -18.5t92 34t57.5 109l39 -14q-82 -276 -299 -276q-88 0 -344 40.5t-357.5 40.5t-205.5 -65z" />
<glyph unicode="3" horiz-adv-x="1382" d="M61 260q0 111 64.5 195t159.5 84q59 0 93 -31t34 -72t-28 -71.5t-71 -30.5t-69.5 25.5t-38.5 25.5q-37 0 -60.5 -48t-23.5 -110q0 -186 138 -305t321 -119q272 0 420.5 174.5t148.5 428.5q0 152 -40 265t-109 175q-133 119 -314 119h-70l-12 24l342 492h-483 q-100 0 -146.5 -63.5t-46.5 -258.5h-41v426h39q25 -68 125 -67h703v-37l-344 -488q208 -25 366 -155q82 -68 132 -178.5t50 -247.5q0 -272 -203.5 -458.5t-506.5 -186.5q-227 0 -378 142t-151 351z" />
<glyph unicode="4" horiz-adv-x="1284" d="M31 211v39l901 1276h55v-1276h246v-39h-246v-356h121v-39h-377v39h119v356h-819zM82 250h768v1081z" />
<glyph unicode="5" horiz-adv-x="1382" d="M61 260q0 111 64.5 195t159.5 84q59 0 93 -31t34 -72t-28 -71.5t-71 -30.5t-69.5 25.5t-38.5 25.5q-37 0 -60.5 -48t-23.5 -110q0 -186 138 -305t321 -119q272 0 420.5 174.5t148.5 426t-128 410.5t-409 159q-74 0 -192.5 -19.5t-181.5 -44.5l-23 31l133 502 q27 96 162 96q39 0 205 -19.5t317 -19.5q109 0 166 68l31 -21q-106 -113 -179 -148.5t-178.5 -35.5t-254 16.5t-152.5 16.5q-53 0 -79 -31t-52 -133l-76 -279q190 57 377 58q315 0 490 -150.5t175 -434t-203.5 -471t-506.5 -187.5q-227 0 -378 142t-151 351z" />
<glyph unicode="6" horiz-adv-x="1331" d="M82 555q0 295 106.5 528.5t270.5 353t350 119.5t301 -101t115 -218q0 -72 -41 -117t-85 -45t-73 26.5t-29 70.5t50.5 85t50.5 64q0 88 -78 144.5t-219 56.5q-233 0 -405.5 -255t-172.5 -681q0 -354 130 -570.5t362 -216.5q201 0 308 143.5t107 334t-108.5 322.5t-313 132 t-368.5 -143l-21 28q180 150 425 150t385.5 -133t140.5 -336t-156 -366.5t-419 -163.5t-438 203.5t-175 584.5z" />
<glyph unicode="7" horiz-adv-x="1120" d="M61 1098v483h39q0 -98 41 -98q10 0 65.5 23.5t107.5 23.5t227.5 -42t304.5 -42t260 72l14 -37q-172 -207 -269 -410q-200 -419 -200 -1216h121v-39h-414v39h117q6 901 553 1579q-199 -90 -395 -91q-70 0 -210 18.5t-179 18.5q-74 0 -108 -84.5t-34 -197.5h-41z" />
<glyph unicode="8" horiz-adv-x="1316" d="M61 254q0 102 42 195.5t110 160.5q132 129 281 187q-131 61 -202 145t-71 217q0 174 138.5 290t327.5 116t317.5 -104.5t128.5 -268.5q0 -125 -94.5 -231.5t-223.5 -161.5q100 -41 167 -77t136 -94q137 -115 137 -320.5t-172 -373t-429 -167.5t-425 127t-168 360z M197 275.5q0 -193.5 128 -332t347.5 -138.5t351 129t131.5 295q0 86 -29.5 158t-69.5 117t-113 90t-126 67.5t-146 59.5t-139 57q-135 -47 -235 -178t-100 -324.5zM299 1238.5q0 -117.5 59 -184.5q31 -36 57.5 -61.5t83 -54.5t86 -43t101.5 -44l96 -40q227 123 228 379 q0 143 -92.5 242.5t-245 99.5t-263 -88t-110.5 -205.5z" />
<glyph unicode="9" horiz-adv-x="1372" d="M82 1024q0 213 158.5 375t435.5 162t435.5 -220.5t158.5 -611.5q0 -442 -205 -702t-506 -260q-193 0 -311.5 101t-118.5 218q0 72 41 117t85 45t72.5 -26.5t28.5 -70.5t-50 -85t-50 -64q0 -86 85 -143.5t228 -57.5q285 0 425.5 244t140.5 680q0 273 -91 511 q-49 130 -147 211t-235 81q-209 0 -325 -137.5t-116 -347.5t107.5 -328.5t279.5 -118.5q127 0 237.5 48t166.5 95l20 -26q-78 -63 -198.5 -107.5t-249.5 -44.5q-229 0 -365.5 125t-136.5 338z" />
<glyph unicode=":" horiz-adv-x="337" d="M61 80q0 39 32 68.5t75 29.5t74.5 -29.5t31.5 -68.5t-30.5 -67.5t-74.5 -28.5t-76 28.5t-32 67.5zM63 705q0 39 32 68.5t75 29.5t74.5 -29.5t31.5 -68.5t-30.5 -67.5t-74.5 -28.5t-76 28.5t-32 67.5z" />
<glyph unicode=";" horiz-adv-x="337" d="M61 79q0 40 29 69.5t76 29.5t77.5 -30.5t30.5 -95.5t-55 -154t-133 -156l-16 18q57 49 99 118t46 110q-18 -6 -56 -6.5t-68 28.5t-30 69zM63 705q0 39 32 68.5t75 29.5t74.5 -29.5t31.5 -68.5t-30.5 -67.5t-74.5 -28.5t-76 28.5t-32 67.5z" />
<glyph unicode="&#x3c;" horiz-adv-x="741" d="M61 426v49l603 342l16 -33l-498 -282l498 -295l-72 -111z" />
<glyph unicode="=" horiz-adv-x="763" d="M61 268l74 107h567l-61 -107h-580zM61 551l74 106h567l-61 -106h-580z" />
<glyph unicode="&#x3e;" horiz-adv-x="741" d="M61 129l498 283l-498 295l72 110l547 -330v-49l-602 -342z" />
<glyph unicode="?" horiz-adv-x="1460" d="M74 1298q0 168 172 306.5t476 138.5t470 -146.5t166 -367.5q0 -211 -150 -395q-89 -109 -240 -252.5t-218 -219.5q-150 -170 -150 -346h-41q0 216 220 453q91 98 182.5 201.5t156 240t64.5 285.5q0 238 -122 377t-380 139q-215 0 -345 -105.5t-130 -220.5q0 -24 52 -50 q19 -9 35.5 -32.5t16.5 -65.5t-31.5 -69.5t-79.5 -27.5t-86 42t-38 115zM471 -231.5q0 38.5 32 68.5t75 30t74.5 -30t31.5 -68.5t-30.5 -67.5t-74.5 -29t-76 29t-32 67.5z" />
<glyph unicode="@" horiz-adv-x="1769" d="M51 451q0 385 252 633.5t627 248.5q334 0 561 -214t227 -546q0 -272 -132 -430.5t-291.5 -158.5t-184.5 206q-45 -92 -135 -149t-187 -57q-170 0 -278.5 128t-108.5 341t128 365.5t317.5 152.5t320.5 -105q68 86 125 105l13 -23q-45 -31 -56.5 -91.5t-11.5 -203.5v-262 q0 -229 13.5 -304t74.5 -75q76 0 165 122q44 61 73.5 174.5t29.5 256.5q0 336 -187 537t-503 201t-521.5 -234.5t-205.5 -596t204 -582t519 -220.5q154 0 304.5 44t248.5 122l10 -26q-96 -74 -261 -123t-314 -49q-233 0 -422 96t-301.5 283.5t-112.5 433.5zM537 481 q0 -199 79.5 -326.5t197.5 -127.5t205 89t87 234v377q0 78 -56.5 146.5t-179.5 68.5t-228 -101t-105 -360z" />
<glyph unicode="A" d="M41 -289q98 0 142 38t91 173l570 1671q-14 14 -39 14q-31 0 -80 -22l-14 31l264 127l657 -2032h113v-39h-385v39h121l-516 1606q-51 158 -88 229l-316 -930h492l14 -38h-518l-248 -736q-14 -43 -14 -67q0 -63 106 -64h35v-39h-387v39z" />
<glyph unicode="B" horiz-adv-x="1607" d="M41 -289h117v1929h-111v35h692q387 0 531 -181q76 -95 76 -230q0 -115 -85 -234q-44 -61 -127 -112.5t-194 -75.5q174 -25 298 -84.5t188 -139.5q120 -150 120 -335q0 -295 -220 -453t-650 -158h-635v39zM301 -289h369q704 0 704 563q0 226 -132 375q-151 170 -519 170 h-264v39h268q217 0 342 103.5t125 285.5q0 393 -469 393h-424v-1929z" />
<glyph unicode="C" horiz-adv-x="1728" d="M66 641q0 260 80.5 469t215.5 337q276 263 639 263q229 0 443 -111q37 -18 59 -18q43 0 59.5 55.5t16.5 104.5h39v-508h-41q-8 217 -175 327.5t-401 110.5q-344 0 -556 -258t-212 -727t213 -738.5t547 -269.5q219 0 397.5 102.5t268.5 254.5l37 -23q-104 -166 -296 -270 t-439 -104q-395 0 -645 283.5t-250 719.5z" />
<glyph unicode="D" horiz-adv-x="1789" d="M41 -289h117l2 1925h-119v39h520q592 0 874.5 -256t282.5 -762q0 -431 -268 -701q-133 -134 -352 -209t-504 -75h-553v39zM301 -289h281q983 0 983 953q0 242 -53.5 417.5t-169.5 302.5q-232 252 -779 252h-262v-1925z" />
<glyph unicode="E" horiz-adv-x="1478" d="M41 -289h117l2 1925h-119v39h1188q104 0 129 68h39v-428h-41q0 217 -62 275q-32 30 -66 38t-95 8h-832v-778h481q90 4 90 113h43l68 -400h-39q-39 125 -65.5 175.5t-53 61.5t-94.5 11h-430v-1108h889q106 0 156.5 67.5t50.5 274.5h41v-448h-39q-25 67 -139 67h-3h-1216 v39z" />
<glyph unicode="F" horiz-adv-x="1376" d="M41 -289h117l2 1925h-119v39h1126q104 0 129 68h39v-449h-41q0 224 -60 288q-32 34 -68 44t-95 10h-770v-778h387q102 0 103 113h43l67 -400h-39q-51 162 -82.5 205t-97.5 43h-381v-1108h117v-39h-377v39z" />
<glyph unicode="G" horiz-adv-x="2009" d="M106 623.5q0 457.5 276.5 772t709.5 314.5q260 0 464 -111q37 -18 60 -18q43 0 59.5 55.5t16.5 104.5h39v-508h-41q0 133 -113 266q-146 172 -465 172q-375 0 -615.5 -273.5t-240.5 -740.5q0 -231 61.5 -418.5t166.5 -306.5q218 -247 552 -247t606 247v646h-116v38h381 v-38h-133l-2 -940h-39q0 190 -82 258q-279 -258 -679 -258t-633 264t-233 721.5z" />
<glyph unicode="H" horiz-adv-x="1771" d="M41 -289h119v1925h-119v39h375v-39h-115v-682h1172v682h-115v39h373v-39h-117v-1925h117v-39h-373v39h115v1204h-1172v-1204h115v-39h-375v39z" />
<glyph unicode="I" horiz-adv-x="534" d="M82 -289h117v1925h-117v39h371v-39h-119v-1925h119v-39h-371v39z" />
<glyph unicode="J" horiz-adv-x="1124" d="M41 -41q0 55 32.5 92t78 37t75 -28.5t29.5 -70.5t-38 -77t-38 -53q0 -66 59.5 -130.5t206.5 -64.5q195 0 288 129t93 408l2 1439h-114v35h368v-35h-114l-2 -1386q0 -297 -139.5 -456.5t-378.5 -159.5q-174 0 -291 104t-117 217z" />
<glyph unicode="K" horiz-adv-x="1644" d="M41 -289h117v1925h-117v39h377v-39h-117v-1925h117v-39h-377v39zM459 819v43h262l381 584q70 105 70 135.5t-28 42.5q-26 12 -91 12h-15v39h392v-39q-90 0 -150.5 -50t-136.5 -167l-367 -559q217 -10 341 -140t204 -439q18 -70 43 -179.5t39 -167t37 -120.5 q41 -119 106 -119q51 0 121 67l19 -20q-104 -104 -197 -104q-35 0 -64.5 13t-70.5 54q-85 85 -152 379q-104 459 -178 574q-78 122 -173 147q-54 14 -128 14h-264z" />
<glyph unicode="L" horiz-adv-x="1263" d="M41 -289h117v1925h-117v39h377v-39h-117v-1925h674q106 0 156.5 67.5t50.5 274.5h41v-448h-39q-25 67 -124 67h-3h-1016v39z" />
<glyph unicode="M" horiz-adv-x="1974" d="M41 -289q82 0 112.5 43t30.5 172v1669q-14 12 -39 12q-33 0 -84 -22l-14 31l248 127l725 -1563l657 1495h254l2 -39h-121v-1925h119v-39h-370v39h116v1850l-688 -1561h-49l-627 1354q-57 123 -84 172v-1600q0 -131 30 -173t114 -42v-39h-332v39z" />
<glyph unicode="N" horiz-adv-x="1763" d="M41 -289q88 0 115.5 46t27.5 208v1628q-16 14 -41 14q-33 0 -82 -22l-14 31l229 127l1258 -1813v1452q0 162 -27.5 208t-115.5 46v39h331v-39q-88 0 -115.5 -46t-27.5 -208v-1710h-45l-1206 1737q-43 65 -99 137v-1581q0 -162 28 -208t116 -46v-39h-332v39z" />
<glyph unicode="O" horiz-adv-x="2050" d="M72 626q0 175 39 325.5t119.5 287.5t194.5 241.5t275.5 167t344 62.5t347 -64.5t297 -187.5t211 -319.5t78.5 -440.5q0 -334 -156 -596q-175 -296 -468 -404q-163 -60 -328.5 -60t-299.5 39.5t-253 122.5t-208 201t-141 284t-52 341zM236 680.5q0 -452.5 210.5 -729.5 t569 -277t579 273.5t220.5 727t-205 726t-564.5 272.5t-584.5 -270t-225 -722.5z" />
<glyph unicode="P" horiz-adv-x="1646" d="M41 -289h117v1925h-117v39h717q215 0 377.5 -51t256.5 -142q183 -179 183 -429.5t-129 -420.5q-252 -333 -819 -333h-183v39h172q367 0 582 172t215 508q0 270 -127 434q-144 184 -506 184h-473v-1925h117v-39h-383v39z" />
<glyph unicode="Q" horiz-adv-x="2091" d="M72 618.5q0 212.5 66.5 396t188.5 341t321.5 256t441.5 98.5q178 0 342.5 -68.5t297 -194.5t211 -325.5t78.5 -463t-151.5 -528.5t-423.5 -396q84 -84 127 -122t111.5 -78t137 -40t150.5 82l19 -22q-133 -125 -250 -125t-217.5 66.5t-216.5 185.5q-138 -43 -308 -43 t-333.5 64.5t-297 186t-214 319.5t-80.5 410.5zM236 674.5q0 -449.5 225.5 -725t585.5 -275.5q115 0 229 33q-78 82 -121 123t-107.5 81t-117.5 40q-117 0 -232 -92l-20 26q156 115 311 115q109 0 207 -61.5t217 -174.5q205 111 323.5 344.5t118.5 561.5q0 438 -220 720.5 t-574 282.5t-589.5 -274.5t-235.5 -724z" />
<glyph unicode="R" horiz-adv-x="1644" d="M41 -289h117v1925h-111v39h692q387 0 531 -181q76 -95 76 -230q0 -115 -88 -236q-46 -63 -133 -114.5t-201 -75.5q143 -39 233 -163t156 -376q16 -66 42.5 -180.5t42 -173t38.5 -125.5q44 -125 110 -125q51 0 121 67l19 -20q-104 -104 -197 -104q-35 0 -64.5 13t-70.5 54 q-85 85 -152 379q-50 237 -62 286.5t-27 113t-27.5 96t-31 75.5t-39 63.5t-49 44t-63.5 33.5q-87 23 -180 23h-264v43h268q219 0 343 102.5t124 282.5q0 389 -469 389h-424v-1925h117v-39h-377v39z" />
<glyph unicode="S" horiz-adv-x="1505" d="M72 174h37q0 -223 189 -360.5t457.5 -137.5t421 138.5t152.5 357.5q0 131 -68.5 225.5t-177 147.5t-240.5 95t-263 85t-240 100.5t-177.5 158.5t-68.5 243q0 231 175 373.5t431 142.5q121 0 238 -40t190.5 -81t88.5 -41q43 0 59 56.5t16 105.5h39v-510h-41 q0 59 -33.5 143t-104.5 154t-197 123t-248 53q-231 0 -375 -112.5t-144 -299.5q0 -123 70 -212t180.5 -141t243.5 -95t267 -89t245 -106.5t180.5 -164t69.5 -231.5t-45 -235.5t-129 -193.5t-216 -137t-294 -51q-168 0 -249 27.5t-110.5 38.5t-79 37t-76 39.5t-57 13 t-56.5 -52.5t-26 -103h-34v536z" />
<glyph unicode="T" horiz-adv-x="1613" d="M41 1286v449h39q25 -68 141 -68h1172q117 0 141 68h39v-449h-41q0 223 -60 288q-32 34 -68 44t-95 10h-432l4 -1917h120v-39h-387v39h119l6 1917h-434q-59 0 -95 -10t-68 -44q-60 -65 -60 -288h-41z" />
<glyph unicode="U" horiz-adv-x="1771" d="M41 1636v39h375v-39h-115v-1181q0 -180 26.5 -314.5t90.5 -244.5q133 -224 469 -224q386 0 513 324q73 186 73 459v1181h-115v39h373v-39h-117v-1183q0 -395 -180.5 -605t-546 -210t-546.5 209.5t-181 605.5v1183h-119z" />
<glyph unicode="V" horiz-adv-x="1667" d="M41 1640v35h381v-35h-113l553 -1714l484 1497q29 90 29 133q1 44 -27 62q-26 18 -95 18h-14v39h387v-39q-96 0 -146 -59t-91 -182l-558 -1700h-43l-628 1945h-119z" />
<glyph unicode="W" horiz-adv-x="2379" d="M41 1640v35h381v-35h-113l553 -1714l283 873l-273 841h-118v35h381v-35h-113l197 -610l127 393q29 88 28 140q0 73 -118 73h-3h-14v39h387v-39q-98 0 -147 -56t-93 -185l-143 -439l332 -1030l483 1497q29 92 29 134.5t-26.5 60.5t-94.5 18h-14v39h387v-39 q-96 0 -147.5 -59t-92.5 -182l-555 -1700h-43l-334 1032l-336 -1032h-43l-628 1945h-119z" />
<glyph unicode="X" horiz-adv-x="1652" d="M41 -289q94 0 150.5 47t142.5 199l436 752l-522 931h-117v35h397v-35h-118l442 -788l360 621q47 84 47.5 113.5t-25.5 39.5t-99 10h-15v39h387v-39q-96 0 -144 -37.5t-130 -179.5l-354 -612l618 -1100h115v-35h-398v35h117l-536 957l-439 -760l-12 -19q-45 -84 -45 -119 t24.5 -45t96.5 -10h14v-39h-393v39z" />
<glyph unicode="Y" horiz-adv-x="1540" d="M41 1640v35h387v-35h-121l492 -1022l407 828q47 94 47 129t-28.5 48t-98.5 13h-14v39h387v-39q-90 0 -135 -35.5t-94 -134.5l-443 -895l4 -860h121v-39h-387v39h119l6 803l-534 1126h-115z" />
<glyph unicode="Z" horiz-adv-x="1517" d="M41 -293l1223 1929h-883q-61 0 -95 -8t-67 -38q-61 -57 -61 -275h-41v428h39q25 -68 141 -68h1122l13 -39l-1219 -1925h999q59 0 95 10.5t68 44.5q61 63 61 287h41v-448h-39q-25 67 -128 67h-3h-1248z" />
<glyph unicode="[" horiz-adv-x="440" d="M102 -535v2417h236v-35h-111l-2 -2347h113v-35h-236z" />
<glyph unicode="\" horiz-adv-x="559" d="M-61 1882h43l639 -2417h-43z" />
<glyph unicode="]" horiz-adv-x="440" d="M102 -500h113l-2 2347h-111v35h236v-2417h-236v35z" />
<glyph unicode="^" horiz-adv-x="581" d="M61 1085q125 105 207 248h45q82 -143 207 -248l-12 -16q-123 59 -219 154q-90 -92 -215 -154z" />
<glyph unicode="_" horiz-adv-x="788" d="M31 -139h727v-41h-727v41z" />
<glyph unicode="`" horiz-adv-x="397" d="M61 1272q0 61 54 61q43 0 73 -73q48 -118 148 -173l-12 -18q-127 55 -195 113.5t-68 89.5z" />
<glyph unicode="a" horiz-adv-x="970" d="M51 203q0 152 154.5 253t468.5 111v127q0 141 -45 194.5t-146.5 53.5t-167 -26.5t-65.5 -57.5q0 -10 24.5 -23.5t36 -29.5t11.5 -49t-35 -61.5t-78 -28.5t-71.5 23.5t-28.5 64.5q0 84 105 150.5t253 66.5q338 0 338 -291v-459q0 -172 65 -172q31 0 86 55l15 -16 q-109 -104 -189 -104q-45 0 -76.5 41t-31.5 135v385q-481 -14 -481 -320q0 -92 46 -147t123 -55q111 0 230 92l12 -23q-134 -108 -286 -108h-3q-119 0 -191.5 56t-72.5 163z" />
<glyph unicode="b" horiz-adv-x="1075" d="M27 8q72 16 96 60.5t24 193.5v1600q0 233 -53 233q-6 0 -18 -4l-45 -18l-4 26l243 135v-1337q147 74 295 74q207 0 328 -127t121 -337t-147.5 -366.5t-366.5 -156.5h-3q-177 0 -270 120q-55 -92 -192 -120zM270 270q4 -165 81 -214q64 -42 171 -42q147 0 246.5 128 t99.5 348.5t-78.5 334t-227.5 113.5t-292 -76v-592z" />
<glyph unicode="c" horiz-adv-x="958" d="M61 446q0 233 140.5 379t349.5 146q147 0 220 -71t73 -159q0 -55 -32 -93t-79 -38t-74.5 27t-27.5 61.5t17.5 55t37.5 30.5q53 26 53 47q0 39 -49 75t-143 36q-147 0 -243.5 -119t-96.5 -323.5t87 -344t253 -139.5q102 0 196.5 39t153.5 95l18 -27q-59 -57 -164.5 -98 t-224 -41t-216 38.5t-149.5 106.5q-100 131 -100 317z" />
<glyph unicode="d" horiz-adv-x="1130" d="M51 448q0 217 133 370t365 153q115 0 266 -78v971q0 175 -14.5 203t-34 28t-68.5 -22l-6 24l250 135v-2044q0 -80 11.5 -117.5t44 -37.5t87.5 55l15 -16q-37 -35 -56 -52q-64 -53 -129 -53q-90 1 -100 144q-162 -127 -354 -127t-301 123.5t-109 340.5zM195 465 q0 -205 88 -321q89 -118 239 -118h1q150 0 292 119v715q-141 78 -266 78q-180 0 -267 -134t-87 -339z" />
<glyph unicode="e" horiz-adv-x="978" d="M61 459q0 242 139.5 377t325.5 135q106 0 183 -37t115 -100q71 -116 71 -252h-580v34h357q41 0 54 21.5t13 60.5q0 96 -56 169t-163 73q-137 0 -225 -109.5t-88 -343.5q0 -273 123 -379q107 -92 260.5 -92t298.5 86l18 -26q-158 -92 -354 -92q-232 0 -375 143 q-51 51 -84 137t-33 195z" />
<glyph unicode="f" horiz-adv-x="544" d="M45 0v35h129v885h-129v34h129v205q0 217 76 332t203 115q57 0 95 -29t38 -74t-31 -73.5t-74 -28.5t-61.5 24.5t-18.5 48t10.5 45t10.5 25.5q0 20 -25 21q-96 0 -96 -283v-328h174v-34h-174v-885h125v-35h-381z" />
<glyph unicode="g" horiz-adv-x="960" d="M31 -379q0 55 32.5 92t77.5 37t75 -28.5t30 -70.5t-38 -77t-38 -53q0 -66 59.5 -130.5t225 -64.5t264 106.5t98.5 247t-61.5 208t-169.5 94.5q-58 15 -106 23.5t-72.5 16t-38 13.5t-25.5 16q-22 18 -22 64.5t63 152.5q-135 20 -227 101.5t-92 229t113.5 255t279.5 115.5 q2 219 66.5 302t150.5 83q47 0 78.5 -27t31.5 -70t-26.5 -72.5t-61.5 -29.5t-59.5 15.5t-36.5 15.5q-106 0 -108 -215q172 -2 287.5 -101.5t115.5 -251t-131 -254t-303 -102.5q-29 0 -43 2q-59 -92 -60 -149q0 -31 16.5 -43.5t29 -18.5t36 -11t42 -8t52 -9.5t81 -15.5 t102.5 -27.5t113 -51.5q120 -71 120 -224t-146.5 -279.5t-367.5 -126.5q-174 0 -290.5 104t-116.5 217zM197 611q0 -181 100 -259q84 -65 192.5 -65t188.5 84t80 242.5t-79 244.5t-192.5 86t-201.5 -76t-88 -257z" />
<glyph unicode="h" horiz-adv-x="1064" d="M31 2097l250 135v-1415q211 156 364 156q262 0 262 -332v-606h111v-35h-363v35h127v604q0 154 -40 222.5t-125 68.5t-182 -51.5t-154 -102.5v-741h116v-35h-360v35h117v1829q0 171 -14.5 201t-34 30t-68.5 -22z" />
<glyph unicode="i" horiz-adv-x="458" d="M51 840l250 131v-936h117v-35h-363v35h119v571q0 176 -14.5 204t-34 28t-68.5 -23zM127 1196q0 37 31 65.5t71 28.5t69.5 -28.5t29.5 -65.5t-29.5 -64.5t-70.5 -27.5t-71 27.5t-30 64.5z" />
<glyph unicode="j" horiz-adv-x="444" d="M-111 -612q0 45 31 73.5t74 28.5t61.5 -24.5t18.5 -48t-10.5 -45t-10.5 -25.5q0 -20 29 -21q102 0 102 211l-10 742v321q0 123 -8 178.5t-35 55.5t-74 -23l-6 25l250 135v-1149q0 -387 -133 -491q-59 -46 -130.5 -46t-110 29t-38.5 74zM121 1196q0 37 30.5 65.5 t70.5 28.5t70 -28.5t30 -65.5t-30 -64.5t-71 -27.5t-70.5 27.5t-29.5 64.5z" />
<glyph unicode="k" horiz-adv-x="1026" d="M31 2097l250 135v-2197h116v-35h-360v35h117v1829q0 171 -14.5 201t-34 30t-68.5 -22zM362 631v20q55 123 168 221.5t244 98.5q76 0 116 -39t40 -91t-32 -86t-75 -34t-68.5 29.5t-25.5 60.5t15.5 57.5t15.5 28.5q0 14 -37 14q-96 0 -187.5 -77.5t-140.5 -178.5 q160 -18 267 -117q123 -114 236 -420q15 -41 33 -66q23 -34 41.5 -34t35.5 9l8 -27q-45 -16 -99 -16q-107 0 -186 180q-18 43 -46 114.5t-44 111.5t-45 91t-58 79q-68 67 -176 71z" />
<glyph unicode="l" horiz-adv-x="438" d="M31 2097l250 135v-2197h116v-35h-360v35h117v1829q0 171 -14.5 201t-34 30t-68.5 -22z" />
<glyph unicode="m" horiz-adv-x="1611" d="M41 0v35h125v563q0 176 -14.5 203.5t-34 27.5t-68.5 -22l-6 24l250 132v-148q201 158 330 158q90 0 149 -46t82 -108q195 154 328 154t202.5 -68.5t69.5 -247.5v-622h113v-35h-363v35h125v604q0 291 -178 291q-113 0 -279 -137v-758h113v-35h-364v35h127v676 q0 92 -44.5 155.5t-119.5 63.5q-104 0 -291 -156v-739h113v-35h-365z" />
<glyph unicode="n" horiz-adv-x="1085" d="M41 0v35h125v573q0 176 -14.5 204t-34 28t-68.5 -23l-6 25l250 131v-166q199 166 351 166t218 -84t66 -271v-583h110v-35h-362v35h125v583q0 160 -43 236t-135 76q-145 0 -330 -164v-731h113v-35h-365z" />
<glyph unicode="o" horiz-adv-x="1021" d="M51 456.5q0 231.5 125 373t354 141.5q172 0 301.5 -121t129.5 -352t-124.5 -372.5t-355.5 -141.5q-174 0 -302 120.5t-128 352zM188 494.5q0 -226.5 82 -353.5t238 -127q315 0 315 451q0 221 -82 348t-232 127t-235.5 -109.5t-85.5 -336z" />
<glyph unicode="p" horiz-adv-x="1097" d="M37 852l250 119v-142q176 141 363 141q1 1 2 1q186 0 285 -130t99 -340t-139 -363.5t-377 -153.5q-115 0 -233 47v-361q0 -233 53 -233q6 0 18 4l45 16l7 -24l-248 -131v1370q0 176 -49 176q-25 0 -70 -21zM287 72q106 -55 233 -56q178 0 274.5 133.5t96.5 350.5 t-76 327.5t-215.5 110.5t-312.5 -143v-723z" />
<glyph unicode="q" horiz-adv-x="1083" d="M61 462q0 222 134.5 365.5t350.5 143.5t335 -127q63 102 131 127l12 -23q-45 -31 -60.5 -95.5t-15.5 -199.5v-981q0 -135 8.5 -185t36.5 -50q12 0 62 22l6 -24l-236 -135v753q-141 -69 -306 -69h-5q-219 0 -336 128t-117 350zM203 475q0 -203 82 -331t248 -128t292 74 v576q1 276 -280 276q-126 0 -227 -94q-52 -49 -83.5 -145.5t-31.5 -227.5z" />
<glyph unicode="r" horiz-adv-x="1034" d="M41 840l250 131v-123q168 123 329 123t228 -68.5t67 -175.5t-89 -183.5t-248 -103.5q121 -18 194.5 -71t112.5 -166q45 -144 77 -175q13 -14 30 -14t34 9l8 -27q-57 -20 -101 -20q-62 0 -99 39q-39 40 -72 137q-57 168 -122 221t-169 53h-70v25q135 0 209 28 q168 68 168 248q0 84 -44 146.5t-138 62.5q-150 0 -305 -121v-780h112v-35h-358v35h119v571q0 176 -14.5 204t-34 28t-68.5 -23z" />
<glyph unicode="s" horiz-adv-x="847" d="M82 734q0 89 90 163t223 74q74 0 148.5 -24.5t91.5 -24.5q57 0 57 94h35v-348h-37q0 123 -81 197.5t-210 74.5q-86 0 -150.5 -44t-64.5 -112.5t62.5 -117t150.5 -82t177.5 -72.5t150.5 -105.5t61 -162.5t-89 -178t-255 -82q-74 0 -154.5 25.5t-101.5 25.5q-57 0 -57 -94 h-35v403h37q0 -80 12.5 -136t66.5 -112q78 -82 211.5 -82t196 50.5t62.5 128.5t-61.5 132t-149.5 89t-176 71.5t-149.5 98t-61.5 150.5z" />
<glyph unicode="t" horiz-adv-x="526" d="M25 915v39h153l2 273l127 80v-353h178v-39h-178l2 -694q0 -172 66 -172q31 0 86 55l14 -16q-109 -104 -188 -104q-45 0 -77 41t-32 135v755h-153z" />
<glyph unicode="u" horiz-adv-x="1067" d="M20 840l254 135v-680q0 -158 48.5 -216.5t130.5 -58.5t169 50.5t150 115.5v500q0 90 -12 126t-45 36q-14 0 -70 -25l-6 25l262 123v-697q0 -131 19.5 -177t51.5 -46t85 53l14 -16q-106 -104 -171 -104q-119 0 -128 163q-66 -68 -163 -115.5t-169.5 -47.5t-115.5 11 t-87 42q-94 66 -94 266v340q0 195 -41 195q-27 0 -75 -23z" />
<glyph unicode="v" horiz-adv-x="919" d="M-27 846l213 125q33 -41 124 -302t163 -495l219 574q29 76 29 108.5t-26.5 47t-92.5 16.5v34h295v-34q-61 0 -93 -39t-75 -152l-280 -729h-46l-190 547q-85 245 -127 283q-14 12 -33.5 12t-66.5 -21z" />
<glyph unicode="w" horiz-adv-x="1447" d="M-27 846l213 125q62 -77 287 -795l221 574q-33 76 -60 88q-9 4 -24.5 4t-62.5 -21l-12 25l213 125q33 -41 123 -300t163 -495l219 569q29 74 29 109t-26.5 49.5t-92.5 16.5v34h295v-34q-66 0 -96.5 -43t-85.5 -185l-264 -678l-2 -14h-45l-191 547q-39 111 -57 153 l-266 -686l-2 -14h-46l-190 547q-85 245 -127 283q-14 12 -33.5 12t-66.5 -21z" />
<glyph unicode="x" horiz-adv-x="919" d="M20 0v35h15q61 2 106 42t119 150l146 222l-101 188q-53 100 -92 153.5t-54.5 61.5t-36 8t-73.5 -33l-14 17l205 127q45 -33 247 -404l134 203q51 76 51 103.5t-24.5 37t-80.5 9.5v34h291v-34q-51 0 -85 -19.5t-71 -77.5l-192 -293q0 -10 274 -495h90v-35h-352v35h115 l-209 377l-162 -250q-39 -61 -39 -85.5t11.5 -32t44.5 -9.5h28v-35h-291z" />
<glyph unicode="y" horiz-adv-x="892" d="M-39 -560q0 56 36 87t73 31t63.5 -23.5t26.5 -57.5t-14.5 -58.5t-14.5 -30.5q0 -23 16 -23q102 0 180.5 154.5t168.5 468.5l10 35l-103 -29l-217 639q-41 123 -68.5 166t-54 43t-71.5 -21l-12 25l213 125q40 -46 173.5 -454t149.5 -460l201 695q14 49 14 93t-30.5 59.5 t-86.5 15.5v34h295v-34q-57 0 -90 -37t-59 -129l-221 -770q-120 -427 -213 -552q-90 -122 -209 -122q-78 0 -117 37t-39 93z" />
<glyph unicode="z" horiz-adv-x="876" d="M41 35l621 885h-320q-141 0 -183 -53.5t-42 -198.5h-37v348h35q0 -35 15 -48.5t50 -13.5h613l10 -32l-623 -887h424q86 0 128 58.5t42 193.5h37v-361h-35q0 37 -20.5 55.5t-87.5 18.5h-615z" />
<glyph unicode="{" horiz-adv-x="671" d="M102 657v33q84 4 140.5 70.5t56.5 251.5q0 84 -15.5 311t-15.5 321.5t66.5 166t187.5 71.5h47v-27h-49q-72 0 -102.5 -57t-30.5 -126t21.5 -301t21.5 -358.5t-61.5 -217t-161.5 -121.5q100 -31 161.5 -122t61.5 -217t-21.5 -358.5t-21.5 -301.5t30.5 -126t102.5 -57h49 v-27h-47q-121 0 -187.5 72t-66.5 166t15.5 321.5t15.5 311.5q0 184 -56.5 250.5t-140.5 70.5z" />
<glyph unicode="|" horiz-adv-x="286" d="M123 -535v2417h41v-2417h-41z" />
<glyph unicode="}" horiz-adv-x="671" d="M102 -508h50q72 0 102.5 57.5t30.5 126t-21.5 301t-21.5 330.5q0 301 223 367q-223 66 -223 366q0 98 21.5 331t21.5 301.5t-31 125.5t-102 57h-50v27h48q121 0 187 -71.5t66 -166t-15 -321.5t-15 -311q0 -184 56 -251t140 -71v-33q-84 -4 -140 -70.5t-56 -250.5 q0 -84 15 -311.5t15 -322t-66.5 -166t-186.5 -71.5h-48v27z" />
<glyph unicode="~" horiz-adv-x="759" d="M61 422q111 137 209 137q43 0 145.5 -48t153 -48t105.5 59l24 -24q-111 -137 -209 -138q-43 0 -145 48.5t-152 48.5t-106 -60z" />
<glyph unicode="&#xa1;" horiz-adv-x="458" d="M123 1573q0 39 30.5 67.5t74.5 28.5t76 -28.5t32 -67.5t-32 -68.5t-75 -29.5t-74.5 29.5t-31.5 68.5zM147 -227q1 194 64 1552h37q61 -1321 61 -1552q0 -57 -15 -79t-64.5 -22t-66 21.5t-16.5 79.5z" />
<glyph unicode="&#xa2;" horiz-adv-x="1144" d="M61 672.5q0 262.5 144.5 430t357.5 202.5v223h35v-219q45 4 68 4q186 0 286.5 -77t100.5 -147.5t-35 -103.5t-82 -33t-77 21.5t-30 62.5t30 71t30 52t-23.5 48t-82 49.5t-103.5 23.5t-82 -4v-1172q18 -4 61 -4q133 0 237.5 61.5t160.5 129.5l26 -23q-59 -78 -182 -145.5 t-303 -67.5v-239h-35v239q-227 14 -364.5 184.5t-137.5 433zM205 696q0 -233 95 -391t263 -194v1161q-131 -25 -233 -136q-125 -136 -125 -440z" />
<glyph unicode="&#xa3;" horiz-adv-x="1449" d="M41 -47q0 57 63.5 97t150.5 40t222 -33q14 66 14.5 155t-42.5 308h-197v37h188q-73 329 -73 475q0 225 145 360.5t365 135.5q160 0 272.5 -100.5t112.5 -258.5q0 -111 -54 -189q-93 -138 -241 -138q-68 0 -103 35.5t-35 80t26 74t83.5 29.5t75.5 -57q2 -2 5 -13.5 t5 -15.5t6 -11.5t8 -10.5q12 -9 29 -9q68 0 113 71.5t45 147.5q0 145 -97.5 237.5t-256.5 92.5t-269 -112.5t-110 -301.5q0 -105 18 -202t37.5 -191t25.5 -129h230l-21 -37h-200q33 -174 32.5 -284.5t-45.5 -200.5q326 -90 511.5 -90t301.5 139l27 -23q-182 -246 -399 -245 q-108 0 -188.5 29.5t-104 39t-103 47t-86.5 39.5q-117 -156 -309 -155q-80 0 -129 40t-49 97zM78 -48q0 -42 36.5 -73t102.5 -31q174 0 242 152q-135 53 -216.5 53t-123 -29.5t-41.5 -71.5z" />
<glyph unicode="&#xa4;" horiz-adv-x="772" d="M61 203q0 31 103 96q-55 72 -55 178.5t61 190.5q-102 61 -102 96q0 14 14 28.5t26.5 14.5t17.5 -2t10 -8t10.5 -11.5t12.5 -16.5t11 -19.5t13.5 -24.5t15.5 -27q74 74 188.5 74t192.5 -74q55 109 84 109q18 0 32.5 -14.5t14.5 -28.5q0 -35 -105 -98q55 -76 55.5 -180.5 t-59.5 -186.5q102 -66 103 -96q0 -14 -14.5 -28.5t-33.5 -14.5q-29 0 -86 106q-77 -71 -187.5 -71t-190.5 73q-21 -35 -27 -47t-13.5 -23.5t-12.5 -16.5t-10 -11q-8 -10 -23.5 -10t-30.5 14t-15 29zM215 495.5q0 -104.5 39 -188.5t123 -90q68 0 122 64.5t54 183t-40 199.5 t-122 88q-76 0 -126 -76t-50 -180.5z" />
<glyph unicode="&#xa5;" horiz-adv-x="1292" d="M41 1382l188 146q88 -88 222.5 -376t191.5 -615q25 150 97.5 366.5t162.5 390.5q119 233 240 234q47 0 77.5 -27.5t30.5 -77t-28.5 -77t-68.5 -27.5q-49 0 -66 57q-5 15 -9 22t-14 7q-59 0 -147 -174t-161 -407.5t-83 -364.5h264l-20 -37h-246v-162h266l-20 -37h-246 v-373h116v-34h-360v34h117v373h-234v37h234q0 117 -4 162h-230v37h226q-23 176 -109 408.5t-170 386t-110 153.5t-87 -43z" />
<glyph unicode="&#xa6;" horiz-adv-x="286" d="M123 -535v1072h41v-1072h-41zM123 811v1071h41v-1071h-41z" />
<glyph unicode="&#xa7;" horiz-adv-x="907" d="M61 870q0 86 67 176.5t173 167.5q-180 113 -180 237t111.5 208t256 84t222 -60.5t77.5 -140.5q0 -55 -32.5 -93t-74.5 -38q-91 0 -91 64q0 35 27.5 55t63.5 20.5t36 20.5q0 53 -59.5 98t-173 45t-188.5 -58.5t-75 -138.5t64.5 -138t155.5 -104t183.5 -94t157 -117 t64.5 -150t-62.5 -173t-148.5 -168q201 -117 201 -259t-123 -245.5t-289 -103.5t-261 79t-95 177q0 55 33.5 91t78.5 36t70.5 -21.5t25.5 -52.5t-16 -48t-34 -24q-52 -19 -52 -38q0 -61 60.5 -114.5t187.5 -53.5t218 68.5t91 179.5q0 82 -68.5 148.5t-167 112.5t-197.5 94 t-168 116.5t-69 154.5zM164 938q0 -93 104 -163q84 -56 193.5 -110.5t152.5 -78.5q129 129 129 278q0 53 -44 103.5t-93 80t-145 80t-137 74.5q-160 -139 -160 -264z" />
<glyph unicode="&#xa8;" horiz-adv-x="548" d="M61 1163.5q0 30.5 24 53t56.5 22.5t57 -22.5t24.5 -53.5t-24.5 -53.5t-57 -22.5t-56.5 23t-24 53.5zM326 1163.5q0 30.5 23.5 53t56 22.5t57 -22.5t24.5 -53.5t-24.5 -53.5t-57 -22.5t-56 23t-23.5 53.5z" />
<glyph unicode="&#xa9;" horiz-adv-x="1472" d="M61 657.5q0 280.5 198 478t477.5 197.5t477 -197.5t197.5 -477.5t-197.5 -477t-478 -197t-477.5 196.5t-197 477zM104 658q0 -265 184.5 -452.5t447.5 -187.5t447.5 187.5t184.5 452t-184.5 452.5t-447.5 188t-447.5 -187.5t-184.5 -452.5zM303 651.5q0 198.5 116 327.5 t312 129q90 0 180 -43q20 -6 41 -6t36.5 20.5t15.5 53.5h34v-289h-37q0 184 -215 229q-33 4 -51 4q-115 0 -206 -108.5t-91 -298t83 -315.5t235 -126q188 0 325 125l19 -30q-55 -53 -154.5 -93.5t-197.5 -40.5q-227 0 -336 131.5t-109 330z" />
<glyph unicode="&#xaa;" horiz-adv-x="669" d="M41 739v33h555v-33h-555zM47 1042q0 109 102.5 171.5t251.5 66.5v23q0 117 -24.5 160.5t-80.5 43.5t-97 -21t-41 -48q0 -12 20.5 -24.5t20.5 -36.5t-21.5 -40t-50.5 -16q-72 0 -72 60t73 103.5t165 43.5q69 0 135 -38q84 -49 84 -187v-297q0 -74 37 -74t63 37l17 -13 q-59 -74 -140 -73q-88 0 -88 118v261q-246 -8 -245 -203q0 -68 24.5 -103.5t71.5 -35.5t96 24l8 -18q-82 -43 -155.5 -43t-113.5 45t-40 114z" />
<glyph unicode="&#xab;" horiz-adv-x="491" d="M41 430v62q156 133 246 272l24 -16q-61 -127 -172 -271v-33q111 -143 172 -270l-24 -16q-90 139 -246 272zM209 436v49q117 104 197 258l24 -16q-55 -135 -139 -266q84 -131 139 -266l-24 -17q-80 154 -197 258z" />
<glyph unicode="&#xac;" horiz-adv-x="974" d="M61 442v39h852v-325l-137 -88v374h-715z" />
<glyph unicode="&#xad;" horiz-adv-x="761" d="M61 410l60 104h579l-59 -104h-580z" />
<glyph unicode="&#xae;" horiz-adv-x="1601" d="M53 1132q0 178 127 305.5t305 127.5t305.5 -127t127.5 -303.5t-123 -303.5q16 -47 45.5 -138t49 -145t54.5 -126t70 -112q85 -97 210.5 -97t195 60.5t69.5 132.5q0 41 -12 40l-33 -4q-49 0 -49 47q0 27 19.5 44.5t50 17.5t53 -25.5t22.5 -76.5q0 -86 -81 -172.5 t-242 -86.5q-84 0 -157 38t-122 90.5t-94 138.5q-59 113 -125 313q-104 -70 -236 -70q-176 0 -303 127t-127 305zM96 1133.5q0 -162.5 114 -278.5t259 -116t240 66q-51 168 -79 220t-54.5 68.5t-75.5 16.5h-56v20h45q45 0 83 39t38 97q0 121 -147 120h-68v-501h47v-21h-180 v21h53v501h-51v21h240q195 0 194 -137q0 -43 -36.5 -86t-114.5 -58q86 -14 138 -82.5t95 -177.5q96 109 96.5 270t-114.5 276.5t-276.5 115.5t-275.5 -116t-114 -278.5z" />
<glyph unicode="&#xaf;" horiz-adv-x="561" d="M61 1151v61h439v-61h-439z" />
<glyph unicode="&#xb0;" horiz-adv-x="516" d="M61 1407q0 84 58.5 141.5t138.5 57.5t138.5 -57.5t58.5 -141.5t-58.5 -140.5t-139.5 -56.5t-138.5 56.5t-57.5 140.5zM115 1406q0 -60 42 -104.5t100 -44.5t100 44.5t42 104.5t-42 105t-100 45t-100 -45t-42 -105z" />
<glyph unicode="&#xb1;" horiz-adv-x="761" d="M61 66l60 104h579l-59 -104h-580zM80 545v41h231v217l138 74v-291h231v-41h-231v-273h-138v273h-231z" />
<glyph unicode="&#xb2;" horiz-adv-x="692" d="M61 760q42 60 202 194q54 45 107 98q117 114 117 255q0 92 -45 147t-118.5 55t-131 -49t-57.5 -117.5t23 -68.5q8 0 22.5 12t32.5 12q57 0 57 -55q0 -27 -20.5 -47t-61 -20t-67.5 40.5t-27 96.5q0 92 72 158.5t186.5 66.5t181 -70.5t66.5 -162t-56.5 -169t-127.5 -125.5 q-236 -161 -301 -223q119 57 213 58l202 -15q59 0 76 58l25 -10q-16 -55 -52 -99.5t-84.5 -44.5t-158 21.5t-158.5 21.5t-102 -37z" />
<glyph unicode="&#xb3;" horiz-adv-x="675" d="M61 952q0 53 30 95.5t70 42.5t58.5 -18.5t18.5 -44.5t-17.5 -42t-38 -16t-35 11t-22.5 11q-23 0 -23 -68.5t57.5 -117.5t146.5 -49t147.5 75.5t58.5 201.5t-54.5 177.5t-119.5 51.5h-51l-4 18l147 215h-207q-45 -4 -65.5 -31.5t-20.5 -105.5h-26v190h24q12 -29 64 -28 h336v-25l-156 -215q96 -16 165.5 -81.5t69.5 -184.5t-87 -203t-206.5 -84t-189.5 65.5t-70 159.5z" />
<glyph unicode="&#xb4;" horiz-adv-x="397" d="M61 1087q100 55 148 173q31 74 74 73q25 0 39 -15t14 -46t-67.5 -89.5t-194.5 -113.5z" />
<glyph unicode="&#xb5;" horiz-adv-x="1185" d="M-111 -612q0 45 31 73.5t74 28.5t61.5 -24.5t18.5 -48t-10.5 -45t-10.5 -25.5q0 -20 29 -21q102 0 102 211l-10 742v321q0 123 -8 178.5t-35 55.5t-74 -23l-6 25l250 135v-207q0 -154 34 -264.5t90 -164.5q188 -181 468 -40v659h244v-34h-113v-699q0 -172 61 -172 q31 0 86 55l15 -16q-37 -35 -56 -52q-63 -52 -118 -52q-119 0 -119 176v96q-123 -57 -239 -57t-212 63.5t-141 202.5v-643q0 -387 -133 -491q-59 -46 -130.5 -46t-110 29t-38.5 74z" />
<glyph unicode="&#xb6;" horiz-adv-x="1415" d="M61 1028q0 182 117 297t352 115h449q254 0 254 78q0 11 -25 23q-47 22 -47 70t32 73.5t76 25.5t74.5 -30.5t30.5 -80.5q0 -80 -84 -139t-291 -59h-20v-1546h108v-39h-249v1585h-146v-1585h-188v39q84 0 113.5 39.5t29.5 166.5v574h-117q-469 0 -469 393z" />
<glyph unicode="&#xb7;" horiz-adv-x="335" d="M61 461q0 39 32 68.5t75 29.5t74.5 -29.5t31.5 -68.5t-30.5 -67.5t-74.5 -28.5t-76 28.5t-32 67.5z" />
<glyph unicode="&#xb8;" horiz-adv-x="360" d="M61 -262l13 20q35 -10 62.5 -10t48 12.5t20.5 28.5t-3 24.5t-7.5 14.5t-13.5 12t-14 10q-17 12 -38 23.5t-21 39.5t25 91h23q-16 -66 -16.5 -82.5t24.5 -25.5q4 -2 50 -16.5t66.5 -33t20.5 -53.5t-38 -59.5t-93 -24.5t-109 29z" />
<glyph unicode="&#xb9;" horiz-adv-x="456" d="M61 1325l177 203h38v-760h103v-29h-303v29h102v639l-94 -107z" />
<glyph unicode="&#xba;" horiz-adv-x="647" d="M41 739v33h555v-33h-555zM43 1201.5q0 150.5 87 238.5t204 88t194.5 -85t77.5 -236t-87 -238.5t-204 -87.5t-194.5 85t-77.5 235.5zM156 1210.5q0 -151.5 33.5 -227.5t126.5 -76t135.5 70t42.5 221.5t-34 228t-127 76.5t-135 -70.5t-42 -222z" />
<glyph unicode="&#xbb;" horiz-adv-x="491" d="M61 195q55 135 140 266q-84 131 -140 266l25 16q80 -154 197 -258v-49q-117 -104 -197 -258zM180 174q61 127 172 270v33q-111 143 -172 271l25 16q90 -139 246 -272v-62q-156 -133 -246 -272z" />
<glyph unicode="&#xbc;" horiz-adv-x="1388" d="M61 -184l1211 1710h55l-1212 -1710h-54zM82 1325l176 203h39v-760h102v-29h-303v29h103v639l-95 -107zM692 -14v28l418 588h37v-588h123v-28h-123v-146h63v-28h-231v28h63v146h-350zM731 14h311v439z" />
<glyph unicode="&#xbd;" horiz-adv-x="1466" d="M61 -184l1211 1710h55l-1212 -1710h-54zM82 1325l176 203h39v-760h102v-29h-303v29h103v639l-95 -107zM836 -164q46 66 202 195q54 45 107 97q117 115 117 255q0 92 -45.5 147.5t-119 55.5t-131 -49t-57.5 -117.5t23 -69.5q8 0 22.5 12.5t32.5 12.5q57 0 57 -56 q0 -27 -20 -47t-61 -20t-68 41t-27 96q0 92 72 158.5t186.5 66.5t181 -70.5t66.5 -161.5t-56 -169t-127 -126q-238 -161 -302 -222q119 57 213 57l203 -14q59 0 75 57l25 -10q-16 -55 -52 -99t-84 -44t-158 21.5t-159 21.5t-102 -37z" />
<glyph unicode="&#xbe;" horiz-adv-x="1409" d="M61 952q0 53 30 95.5t70 42.5t58.5 -18.5t18.5 -44.5t-17.5 -42t-38 -16t-35 11t-22.5 11q-23 0 -23 -68.5t57.5 -117.5t146.5 -49t147.5 75.5t58.5 201.5t-54.5 177.5t-119.5 51.5h-51l-4 18l147 215h-192q-53 0 -77 -26.5t-24 -110.5h-26v190h24q12 -29 64 -28h336v-25 l-156 -215q96 -16 165.5 -81.5t69.5 -184.5t-87 -203t-206.5 -84t-189.5 65.5t-70 159.5zM82 -184l1210 1710h56l-1213 -1710h-53zM713 -14v28l417 588h37v-588h123v-28h-123v-146h64v-28h-232v28h64v146h-350zM752 14h311v439z" />
<glyph unicode="&#xbf;" horiz-adv-x="1460" d="M102 186q0 210 150 396q85 104 238 249.5t220 220.5q150 171 150 347h41q0 -216 -220 -453q-91 -98 -182 -201.5t-155.5 -239.5t-64.5 -286q0 -238 121.5 -377t379.5 -139q215 0 345 105.5t130 220.5q0 18 -25.5 32.5t-52 39t-26.5 71.5t33 74.5t80 27.5t84.5 -42 t37.5 -115q0 -168 -172 -306.5t-475.5 -138.5t-470 146.5t-166.5 367.5zM776 1647q0 39 31 67.5t75 28.5t75.5 -28.5t31.5 -67.5t-31.5 -69t-74.5 -30t-75 30t-32 69z" />
<glyph unicode="&#xc0;" d="M41 -289q98 0 142 38t91 173l570 1671q-31 31 -119 -8l-14 31l264 127l657 -2032h113v-39h-385v39h121l-516 1606q-51 158 -88 229l-316 -930h492l14 -38h-518l-248 -736q-14 -43 -14 -67q0 -63 106 -64h35v-39h-387v39zM694 2044q0 61 54 61q43 0 73 -73 q48 -118 148 -173l-12 -18q-127 55 -195 113.5t-68 89.5z" />
<glyph unicode="&#xc1;" d="M41 -289q98 0 142 38t91 173l570 1671q-31 31 -119 -8l-14 31l264 127l657 -2032h113v-39h-385v39h121l-516 1606q-51 158 -88 229l-316 -930h492l14 -38h-518l-248 -736q-14 -43 -14 -67q0 -63 106 -64h35v-39h-387v39zM858 1859q100 55 148 173q31 74 74 73 q25 0 39 -15t14 -46t-67.5 -89.5t-194.5 -113.5z" />
<glyph unicode="&#xc2;" d="M41 -289q98 0 142 38t91 173l570 1671q-31 31 -119 -8l-14 31l264 127l657 -2032h113v-39h-385v39h121l-516 1606q-51 158 -88 229l-316 -930h492l14 -38h-518l-248 -736q-14 -43 -14 -67q0 -63 106 -64h35v-39h-387v39zM684 1857q125 105 207 248h45q82 -143 207 -248 l-12 -16q-123 59 -219 154q-90 -92 -215 -154z" />
<glyph unicode="&#xc3;" d="M41 -289q98 0 142 38t91 173l570 1671q-31 31 -119 -8l-14 31l264 127l657 -2032h113v-39h-385v39h121l-516 1606q-51 158 -88 229l-316 -930h492l14 -38h-518l-248 -736q-14 -43 -14 -67q0 -63 106 -64h35v-39h-387v39zM677 1913q23 33 78.5 73.5t94.5 40.5t103 -32.5 t109 -32.5t93 47l18 -18q-23 -33 -78 -74t-94 -41t-103.5 32.5t-109.5 32.5t-92 -47z" />
<glyph unicode="&#xc4;" d="M41 -289q98 0 142 38t91 173l570 1671q-31 31 -119 -8l-14 31l264 127l657 -2032h113v-39h-385v39h121l-516 1606q-51 158 -88 229l-316 -930h492l14 -38h-518l-248 -736q-14 -43 -14 -67q0 -63 106 -64h35v-39h-387v39zM700 1935.5q0 30.5 24 53t56.5 22.5t57 -22.5 t24.5 -53.5t-24.5 -53.5t-57 -22.5t-56.5 23t-24 53.5zM965 1935.5q0 30.5 23.5 53t56 22.5t57 -22.5t24.5 -53.5t-24.5 -53.5t-57 -22.5t-56 23t-23.5 53.5z" />
<glyph unicode="&#xc5;" d="M41 -289q98 0 142 38t91 173l570 1671q-31 31 -119 -8l-14 31l264 127l657 -2032h113v-39h-385v39h121l-516 1606q-51 158 -88 229l-316 -930h492l14 -38h-518l-248 -736q-14 -43 -14 -67q0 -63 106 -64h35v-39h-387v39zM807 1954q0 49 36 83t84 34t80.5 -34t32.5 -82 t-33.5 -81t-83.5 -33t-83 32t-33 81zM842 1955q0 -38 23.5 -61.5t58.5 -23.5t58.5 24.5t23.5 60.5t-22.5 60.5t-58.5 24.5t-59.5 -23.5t-23.5 -61.5z" />
<glyph unicode="&#xc6;" horiz-adv-x="2281" d="M41 -289q94 0 154.5 54.5t128.5 191.5l741 1518q25 53 25 88q0 68 -89 73h-14v39h1032q117 0 142 68h39v-428h-41q0 195 -48.5 258t-150.5 63h-672v-901h359q90 4 90 113h43l67 -399h-39q-51 162 -83.5 204.5t-100.5 42.5h-336v-985h688q59 0 95 10.5t68 44.5 q61 63 61 287h41v-448h-39q-25 68 -131 67h-1043v39h117v985h-406l-368 -757q-57 -115 -58 -160q0 -68 129 -68h15v-39h-416v39zM758 735h387l2 797z" />
<glyph unicode="&#xc7;" horiz-adv-x="1728" d="M66 631.5q0 269.5 80.5 478.5t215.5 337q276 263 639 263q229 0 443 -111q37 -18 59 -18q43 0 59.5 55.5t16.5 104.5h39v-508h-41q-8 217 -175 327.5t-401 110.5q-344 0 -556 -258t-212 -727t213 -738.5t547 -269.5q219 0 397.5 102.5t268.5 254.5l37 -23 q-104 -166 -296 -270t-439 -104h-19q-8 -29 -8 -53t24 -34q4 -2 50.5 -16t67 -32.5t20.5 -53.5t-38 -59.5t-93.5 -24.5t-108.5 29l12 20q37 -10 64 -10t47 12.5t20 28.5t-3 24.5t-7 14.5t-13 12t-14.5 9t-16.5 10.5t-15 9.5q-27 16 -27 43t17 72q-252 10 -446.5 142 t-301 356t-106.5 493.5z" />
<glyph unicode="&#xc8;" horiz-adv-x="1478" d="M41 -289h117l2 1925h-119v39h1188q104 0 129 68h39v-428h-41q0 217 -62 275q-32 30 -66 38t-95 8h-832v-778h481q90 4 90 113h43l68 -400h-39q-39 125 -65.5 175.5t-53 61.5t-94.5 11h-430v-1108h889q106 0 156.5 67.5t50.5 274.5h41v-448h-39q-25 68 -142 67h-1216v39z M581 2044q0 61 54 61q43 0 73 -73q48 -118 148 -173l-12 -18q-127 55 -195 113.5t-68 89.5z" />
<glyph unicode="&#xc9;" horiz-adv-x="1478" d="M41 -289h117l2 1925h-119v39h1188q104 0 129 68h39v-428h-41q0 217 -62 275q-32 30 -66 38t-95 8h-832v-778h481q90 4 90 113h43l68 -400h-39q-39 125 -65.5 175.5t-53 61.5t-94.5 11h-430v-1108h889q106 0 156.5 67.5t50.5 274.5h41v-448h-39q-25 68 -142 67h-1216v39z M684 1859q100 55 148 173q31 74 74 73q25 0 39 -15t14 -46t-67.5 -89.5t-194.5 -113.5z" />
<glyph unicode="&#xca;" horiz-adv-x="1478" d="M41 -289h117l2 1925h-119v39h1188q104 0 129 68h39v-428h-41q0 217 -62 275q-32 30 -66 38t-95 8h-832v-778h481q90 4 90 113h43l68 -400h-39q-39 125 -65.5 175.5t-53 61.5t-94.5 11h-430v-1108h889q106 0 156.5 67.5t50.5 274.5h41v-448h-39q-25 68 -142 67h-1216v39z M530 1857q125 105 207 248h45q82 -143 207 -248l-12 -16q-123 59 -219 154q-90 -92 -215 -154z" />
<glyph unicode="&#xcb;" horiz-adv-x="1478" d="M41 -289h117l2 1925h-119v39h1188q104 0 129 68h39v-428h-41q0 217 -62 275q-32 30 -66 38t-95 8h-832v-778h481q90 4 90 113h43l68 -400h-39q-39 125 -65.5 175.5t-53 61.5t-94.5 11h-430v-1108h889q106 0 156.5 67.5t50.5 274.5h41v-448h-39q-25 68 -142 67h-1216v39z M546 1935.5q0 30.5 24 53t56.5 22.5t57 -22.5t24.5 -53.5t-24.5 -53.5t-57 -22.5t-56.5 23t-24 53.5zM811 1935.5q0 30.5 23.5 53t56 22.5t57 -22.5t24.5 -53.5t-24.5 -53.5t-57 -22.5t-56 23t-23.5 53.5z" />
<glyph unicode="&#xcc;" horiz-adv-x="534" d="M82 -289h117v1925h-117v39h371v-39h-119v-1925h119v-39h-371v39zM92 2044q0 61 54 61q43 0 73 -73q48 -118 148 -173l-12 -18q-127 55 -195 113.5t-68 89.5z" />
<glyph unicode="&#xcd;" horiz-adv-x="534" d="M82 -289h117v1925h-117v39h371v-39h-119v-1925h119v-39h-371v39zM170 1859q100 55 148 173q31 74 74 73q25 0 39 -15t14 -46t-67.5 -89.5t-194.5 -113.5z" />
<glyph unicode="&#xce;" horiz-adv-x="534" d="M38 1857q125 105 207 248h45q82 -143 207 -248l-12 -16q-123 59 -219 154q-90 -92 -215 -154zM82 -289h117v1925h-117v39h371v-39h-119v-1925h119v-39h-371v39z" />
<glyph unicode="&#xcf;" horiz-adv-x="534" d="M55 1935.5q0 30.5 24 53t56.5 22.5t57 -22.5t24.5 -53.5t-24.5 -53.5t-57 -22.5t-56.5 23t-24 53.5zM82 -289h117v1925h-117v39h371v-39h-119v-1925h119v-39h-371v39zM320 1935.5q0 30.5 23.5 53t56 22.5t57 -22.5t24.5 -53.5t-24.5 -53.5t-57 -22.5t-56 23t-23.5 53.5z " />
<glyph unicode="&#xd0;" horiz-adv-x="1789" d="M41 -289h117v867h-117v38h117l2 1020h-119v39h520q592 0 874.5 -256t282.5 -762q0 -431 -268 -701q-133 -134 -352 -209t-504 -75h-553v39zM301 -289h281q983 0 983 953q0 242 -53.5 417.5t-169.5 302.5q-232 252 -779 252h-262v-1020h274v-38h-274v-867z" />
<glyph unicode="&#xd1;" horiz-adv-x="1763" d="M41 -289q88 0 115.5 46t27.5 208v1628q-35 31 -123 -8l-14 31l229 127l1258 -1813v1452q0 162 -27.5 208t-115.5 46v39h331v-39q-88 0 -115.5 -46t-27.5 -208v-1710h-45l-1206 1737q-43 65 -99 137v-1581q0 -162 28 -208t116 -46v-39h-332v39zM653 1913q23 33 78.5 73.5 t94.5 40.5t103 -32.5t109 -32.5t93 47l18 -18q-23 -33 -78 -74t-94 -41t-103.5 32.5t-109.5 32.5t-92 -47z" />
<glyph unicode="&#xd2;" horiz-adv-x="2050" d="M72 626q0 175 39 325.5t119.5 287.5t194.5 241.5t275.5 167t344 62.5t347 -64.5t297 -187.5t211 -319.5t78.5 -440.5q0 -334 -156 -596q-175 -296 -468 -404q-163 -60 -328.5 -60t-299.5 39.5t-253 122.5t-208 201t-141 284t-52 341zM236 680.5q0 -452.5 210.5 -729.5 t569 -277t579 273.5t220.5 727t-205 726t-564.5 272.5t-584.5 -270t-225 -722.5zM804 2044q0 61 54 61q43 0 73 -73q48 -118 148 -173l-12 -18q-127 55 -195 113.5t-68 89.5z" />
<glyph unicode="&#xd3;" horiz-adv-x="2050" d="M72 626q0 175 39 325.5t119.5 287.5t194.5 241.5t275.5 167t344 62.5t347 -64.5t297 -187.5t211 -319.5t78.5 -440.5q0 -334 -156 -596q-175 -296 -468 -404q-163 -60 -328.5 -60t-299.5 39.5t-253 122.5t-208 201t-141 284t-52 341zM236 680.5q0 -452.5 210.5 -729.5 t569 -277t579 273.5t220.5 727t-205 726t-564.5 272.5t-584.5 -270t-225 -722.5zM948 1859q100 55 148 173q31 74 74 73q25 0 39 -15t14 -46t-67.5 -89.5t-194.5 -113.5z" />
<glyph unicode="&#xd4;" horiz-adv-x="2050" d="M72 626q0 175 39 325.5t119.5 287.5t194.5 241.5t275.5 167t344 62.5t347 -64.5t297 -187.5t211 -319.5t78.5 -440.5q0 -334 -156 -596q-175 -296 -468 -404q-163 -60 -328.5 -60t-299.5 39.5t-253 122.5t-208 201t-141 284t-52 341zM236 680.5q0 -452.5 210.5 -729.5 t569 -277t579 273.5t220.5 727t-205 726t-564.5 272.5t-584.5 -270t-225 -722.5zM794 1857q125 105 207 248h45q82 -143 207 -248l-12 -16q-123 59 -219 154q-90 -92 -215 -154z" />
<glyph unicode="&#xd5;" horiz-adv-x="2050" d="M72 626q0 175 39 325.5t119.5 287.5t194.5 241.5t275.5 167t344 62.5t347 -64.5t297 -187.5t211 -319.5t78.5 -440.5q0 -334 -156 -596q-175 -296 -468 -404q-163 -60 -328.5 -60t-299.5 39.5t-253 122.5t-208 201t-141 284t-52 341zM236 680.5q0 -452.5 210.5 -729.5 t569 -277t579 273.5t220.5 727t-205 726t-564.5 272.5t-584.5 -270t-225 -722.5zM776 1913q23 33 78.5 73.5t94.5 40.5t103 -32.5t109 -32.5t93 47l18 -18q-23 -33 -78 -74t-94 -41t-103.5 32.5t-109.5 32.5t-92 -47z" />
<glyph unicode="&#xd6;" horiz-adv-x="2050" d="M72 626q0 175 39 325.5t119.5 287.5t194.5 241.5t275.5 167t344 62.5t347 -64.5t297 -187.5t211 -319.5t78.5 -440.5q0 -334 -156 -596q-175 -296 -468 -404q-163 -60 -328.5 -60t-299.5 39.5t-253 122.5t-208 201t-141 284t-52 341zM236 680.5q0 -452.5 210.5 -729.5 t569 -277t579 273.5t220.5 727t-205 726t-564.5 272.5t-584.5 -270t-225 -722.5zM811 1935.5q0 30.5 24 53t56.5 22.5t57 -22.5t24.5 -53.5t-24.5 -53.5t-57 -22.5t-56.5 23t-24 53.5zM1076 1935.5q0 30.5 23.5 53t56 22.5t57 -22.5t24.5 -53.5t-24.5 -53.5t-57 -22.5 t-56 23t-23.5 53.5z" />
<glyph unicode="&#xd7;" horiz-adv-x="743" d="M61 756l105 75l229 -299l226 295l32 -26l-233 -303l262 -340l-100 -80l-242 315l-242 -315l-32 24l247 324z" />
<glyph unicode="&#xd8;" horiz-adv-x="2050" d="M72 647q0 322 158 592q173 293 470 409q162 62 349 62q111 0 229 -29l53 201h43l-55 -211q289 -86 474 -337t185 -636q0 -334 -156 -596q-275 -464 -821 -464q-109 0 -215 24l-51 -197h-43l53 207q-295 82 -484 333t-189 642zM236 670q0 -352 136 -605t386 -346l508 1919 q-111 35 -236 35q-344 0 -569 -270t-225 -733zM799 -293q114 -33 231 -33q344 0 564.5 273.5t220.5 736.5q0 350 -131.5 600t-376.5 342z" />
<glyph unicode="&#xd9;" horiz-adv-x="1771" d="M41 1636v39h375v-39h-115v-1181q0 -180 26.5 -314.5t90.5 -244.5q133 -224 469 -224q386 0 513 324q73 186 73 459v1181h-115v39h373v-39h-117v-1183q0 -395 -180.5 -605t-546 -210t-546.5 209.5t-181 605.5v1183h-119zM706 2044q0 61 54 61q43 0 73 -73 q48 -118 148 -173l-12 -18q-127 55 -195 113.5t-68 89.5z" />
<glyph unicode="&#xda;" horiz-adv-x="1771" d="M41 1636v39h375v-39h-115v-1181q0 -180 26.5 -314.5t90.5 -244.5q133 -224 469 -224q386 0 513 324q73 186 73 459v1181h-115v39h373v-39h-117v-1183q0 -395 -180.5 -605t-546 -210t-546.5 209.5t-181 605.5v1183h-119zM809 1859q100 55 148 173q31 74 74 73q25 0 39 -15 t14 -46t-67.5 -89.5t-194.5 -113.5z" />
<glyph unicode="&#xdb;" horiz-adv-x="1771" d="M41 1636v39h375v-39h-115v-1181q0 -180 26.5 -314.5t90.5 -244.5q133 -224 469 -224q386 0 513 324q73 186 73 459v1181h-115v39h373v-39h-117v-1183q0 -395 -180.5 -605t-546 -210t-546.5 209.5t-181 605.5v1183h-119zM655 1857q125 105 207 248h45q82 -143 207 -248 l-12 -16q-123 59 -219 154q-90 -92 -215 -154z" />
<glyph unicode="&#xdc;" horiz-adv-x="1771" d="M41 1636v39h375v-39h-115v-1181q0 -180 26.5 -314.5t90.5 -244.5q133 -224 469 -224q386 0 513 324q73 186 73 459v1181h-115v39h373v-39h-117v-1183q0 -395 -180.5 -605t-546 -210t-546.5 209.5t-181 605.5v1183h-119zM671 1935.5q0 30.5 24 53t56.5 22.5t57 -22.5 t24.5 -53.5t-24.5 -53.5t-57 -22.5t-56.5 23t-24 53.5zM936 1935.5q0 30.5 23.5 53t56 22.5t57 -22.5t24.5 -53.5t-24.5 -53.5t-57 -22.5t-56 23t-23.5 53.5z" />
<glyph unicode="&#xdd;" horiz-adv-x="1540" d="M41 1640v35h387v-35h-121l492 -1022l407 828q47 94 47 129t-28.5 48t-98.5 13h-14v39h387v-39q-90 0 -135 -35.5t-94 -134.5l-443 -895l4 -860h121v-39h-387v39h119l6 803l-534 1126h-115zM714 1859q100 55 148 173q31 74 74 73q25 0 39 -15t14 -46t-67.5 -89.5 t-194.5 -113.5z" />
<glyph unicode="&#xde;" horiz-adv-x="1890" d="M41 -289h113v1929h-113v35h248v-147q303 182 602 182q426 0 677 -279.5t251 -734.5t-255 -756.5t-673 -301.5q-340 0 -602 178v-140h-248v35zM289 -145q256 -180 577 -181q365 0 577 278.5t212 746.5t-212 721t-577 253q-156 0 -314.5 -56t-262.5 -124v-1638z" />
<glyph unicode="&#xdf;" horiz-adv-x="1089" d="M27 8q72 16 96 60.5t24 193.5v926q0 213 112 315.5t264 102.5t253 -81t101 -234t-111 -244t-238 -103q271 0 420 -216q80 -116 80 -275q0 -209 -116.5 -339t-329.5 -130q-158 0 -271 108l17 23q116 -101 249 -101t223.5 112t90.5 323.5t-108.5 341t-309.5 129.5h-92v34 h35q160 0 244.5 91.5t84.5 243t-68.5 221t-150.5 69.5q-256 0 -256 -391v-903q0 -256 -235 -301z" />
<glyph unicode="&#xe0;" horiz-adv-x="970" d="M51 203q0 152 154.5 253t468.5 111v127q0 141 -45 194.5t-146.5 53.5t-167 -26.5t-65.5 -57.5q0 -10 24.5 -23.5t36 -29.5t11.5 -49t-35 -61.5t-78 -28.5t-71.5 23.5t-28.5 64.5q0 84 105 150.5t253 66.5q338 0 338 -291v-459q0 -172 65 -172q31 0 86 55l15 -16 q-109 -104 -189 -104q-45 0 -76.5 41t-31.5 135v385q-481 -14 -481 -320q0 -92 46 -147t123 -55q111 0 230 92l12 -23q-135 -109 -289 -108q-119 0 -191.5 56t-72.5 163zM266 1272q0 61 54 61q43 0 73 -73q48 -118 148 -173l-12 -18q-127 55 -195 113.5t-68 89.5z" />
<glyph unicode="&#xe1;" horiz-adv-x="970" d="M51 203q0 152 154.5 253t468.5 111v127q0 141 -45 194.5t-146.5 53.5t-167 -26.5t-65.5 -57.5q0 -10 24.5 -23.5t36 -29.5t11.5 -49t-35 -61.5t-78 -28.5t-71.5 23.5t-28.5 64.5q0 84 105 150.5t253 66.5q338 0 338 -291v-459q0 -172 65 -172q31 0 86 55l15 -16 q-109 -104 -189 -104q-45 0 -76.5 41t-31.5 135v385q-481 -14 -481 -320q0 -92 46 -147t123 -55q111 0 230 92l12 -23q-135 -109 -289 -108q-119 0 -191.5 56t-72.5 163zM409 1087q100 55 148 173q31 74 74 73q25 0 39 -15t14 -46t-67.5 -89.5t-194.5 -113.5z" />
<glyph unicode="&#xe2;" horiz-adv-x="970" d="M51 203q0 152 154.5 253t468.5 111v127q0 141 -45 194.5t-146.5 53.5t-167 -26.5t-65.5 -57.5q0 -10 24.5 -23.5t36 -29.5t11.5 -49t-35 -61.5t-78 -28.5t-71.5 23.5t-28.5 64.5q0 84 105 150.5t253 66.5q338 0 338 -291v-459q0 -172 65 -172q31 0 86 55l15 -16 q-109 -104 -189 -104q-45 0 -76.5 41t-31.5 135v385q-481 -14 -481 -320q0 -92 46 -147t123 -55q111 0 230 92l12 -23q-135 -109 -289 -108q-119 0 -191.5 56t-72.5 163zM262 1085q125 105 207 248h45q82 -143 207 -248l-12 -16q-123 59 -219 154q-90 -92 -215 -154z" />
<glyph unicode="&#xe3;" horiz-adv-x="970" d="M51 203q0 152 154.5 253t468.5 111v127q0 141 -45 194.5t-146.5 53.5t-167 -26.5t-65.5 -57.5q0 -10 24.5 -23.5t36 -29.5t11.5 -49t-35 -61.5t-78 -28.5t-71.5 23.5t-28.5 64.5q0 84 105 150.5t253 66.5q338 0 338 -291v-459q0 -172 65 -172q31 0 86 55l15 -16 q-109 -104 -189 -104q-45 0 -76.5 41t-31.5 135v385q-481 -14 -481 -320q0 -92 46 -147t123 -55q111 0 230 92l12 -23q-135 -109 -289 -108q-119 0 -191.5 56t-72.5 163zM237 1141q23 33 78.5 73.5t94.5 40.5t103 -32.5t109 -32.5t93 47l18 -18q-23 -33 -78 -74t-94 -41 t-103.5 32.5t-109.5 32.5t-92 -47z" />
<glyph unicode="&#xe4;" horiz-adv-x="970" d="M51 203q0 152 154.5 253t468.5 111v127q0 141 -45 194.5t-146.5 53.5t-167 -26.5t-65.5 -57.5q0 -10 24.5 -23.5t36 -29.5t11.5 -49t-35 -61.5t-78 -28.5t-71.5 23.5t-28.5 64.5q0 84 105 150.5t253 66.5q338 0 338 -291v-459q0 -172 65 -172q31 0 86 55l15 -16 q-109 -104 -189 -104q-45 0 -76.5 41t-31.5 135v385q-481 -14 -481 -320q0 -92 46 -147t123 -55q111 0 230 92l12 -23q-135 -109 -289 -108q-119 0 -191.5 56t-72.5 163zM272 1163.5q0 30.5 24 53t56.5 22.5t57 -22.5t24.5 -53.5t-24.5 -53.5t-57 -22.5t-56.5 23t-24 53.5z M537 1163.5q0 30.5 23.5 53t56 22.5t57 -22.5t24.5 -53.5t-24.5 -53.5t-57 -22.5t-56 23t-23.5 53.5z" />
<glyph unicode="&#xe5;" horiz-adv-x="970" d="M51 203q0 152 154.5 253t468.5 111v127q0 141 -45 194.5t-146.5 53.5t-167 -26.5t-65.5 -57.5q0 -10 24.5 -23.5t36 -29.5t11.5 -49t-35 -61.5t-78 -28.5t-71.5 23.5t-28.5 64.5q0 84 105 150.5t253 66.5q338 0 338 -291v-459q0 -172 65 -172q31 0 86 55l15 -16 q-109 -104 -189 -104q-45 0 -76.5 41t-31.5 135v385q-481 -14 -481 -320q0 -92 46 -147t123 -55q111 0 230 92l12 -23q-135 -109 -289 -108q-119 0 -191.5 56t-72.5 163zM364 1182q0 49 36 82.5t84 33.5t81 -32.5t33 -81.5t-34 -82t-84 -33t-83 32t-33 81zM399 1183 q0 -38 23.5 -61.5t58.5 -23.5t58.5 24.5t23.5 60.5t-22.5 60.5t-58.5 24.5t-59.5 -23.5t-23.5 -61.5z" />
<glyph unicode="&#xe6;" horiz-adv-x="1591" d="M51 203q0 152 154.5 253t468.5 111v127q0 141 -45 194.5t-146.5 53.5t-167 -26.5t-65.5 -57.5q0 -10 24 -23q48 -27 48 -69.5t-35 -71t-78 -28.5t-71.5 23.5t-28.5 64.5q0 84 105 150.5t253 66.5q250 0 315 -170q133 170 357 170q106 0 183 -37t115 -100q70 -115 70 -252 h-579v34h356q41 0 54.5 21.5t13.5 60.5q0 96 -56.5 169t-162.5 73q-313 0 -314 -442q0 -307 123 -403q59 -46 116.5 -62.5t133.5 -16.5q164 0 309 86l19 -26q-158 -92 -355 -92q-492 0 -491 475v86q-481 -14 -481 -320q0 -96 49 -149t129 -53q162 0 291 118l20 -22 q-143 -135 -356 -135q-123 0 -199 56t-76 163z" />
<glyph unicode="&#xe7;" horiz-adv-x="958" d="M61 446q0 233 140.5 379t349.5 146q147 0 220 -71t73 -159q0 -55 -32 -93t-79 -38t-74.5 27t-27.5 61.5t17.5 55t37.5 30.5q53 26 53 47q0 39 -49 75t-143 36q-147 0 -243.5 -119t-96.5 -323.5t87 -344t253 -139.5q102 0 196.5 39t153.5 95l18 -27q-59 -57 -164.5 -98 t-211.5 -41q-25 0 -70 4q-10 -41 -10 -62t24 -30q4 -2 50.5 -16.5t67 -33t20.5 -53.5t-38 -59.5t-93.5 -24.5t-108.5 29l12 20q37 -10 64 -10t47 12.5t20 28.5t-3 24.5t-7 14.5t-13 12l-15 10q-27 17 -31 19q-27 16 -27 46t18 75q-203 25 -294 151.5t-91 304.5z" />
<glyph unicode="&#xe8;" horiz-adv-x="978" d="M61 459q0 242 139.5 377t325.5 135q106 0 183 -37t115 -100q71 -116 71 -252h-580v34h357q41 0 54 21.5t13 60.5q0 96 -56 169t-163 73q-137 0 -225 -109.5t-88 -343.5q0 -273 123 -379q107 -92 260.5 -92t298.5 86l18 -26q-158 -92 -354 -92q-232 0 -375 143 q-51 51 -84 137t-33 195zM331 1272q0 61 54 61q43 0 73 -73q48 -118 148 -173l-12 -18q-127 55 -195 113.5t-68 89.5z" />
<glyph unicode="&#xe9;" horiz-adv-x="978" d="M61 459q0 242 139.5 377t325.5 135q106 0 183 -37t115 -100q71 -116 71 -252h-580v34h357q41 0 54 21.5t13 60.5q0 96 -56 169t-163 73q-137 0 -225 -109.5t-88 -343.5q0 -273 123 -379q107 -92 260.5 -92t298.5 86l18 -26q-158 -92 -354 -92q-232 0 -375 143 q-51 51 -84 137t-33 195zM413 1087q100 55 148 173q31 74 74 73q25 0 39 -15t14 -46t-67.5 -89.5t-194.5 -113.5z" />
<glyph unicode="&#xea;" horiz-adv-x="978" d="M61 459q0 242 139.5 377t325.5 135q106 0 183 -37t115 -100q71 -116 71 -252h-580v34h357q41 0 54 21.5t13 60.5q0 96 -56 169t-163 73q-137 0 -225 -109.5t-88 -343.5q0 -273 123 -379q107 -92 260.5 -92t298.5 86l18 -26q-158 -92 -354 -92q-232 0 -375 143 q-51 51 -84 137t-33 195zM290 1085q125 105 207 248h45q82 -143 207 -248l-12 -16q-123 59 -219 154q-90 -92 -215 -154z" />
<glyph unicode="&#xeb;" horiz-adv-x="978" d="M61 459q0 242 139.5 377t325.5 135q106 0 183 -37t115 -100q71 -116 71 -252h-580v34h357q41 0 54 21.5t13 60.5q0 96 -56 169t-163 73q-137 0 -225 -109.5t-88 -343.5q0 -273 123 -379q107 -92 260.5 -92t298.5 86l18 -26q-158 -92 -354 -92q-232 0 -375 143 q-51 51 -84 137t-33 195zM307 1163.5q0 30.5 24 53t56.5 22.5t57 -22.5t24.5 -53.5t-24.5 -53.5t-57 -22.5t-56.5 23t-24 53.5zM572 1163.5q0 30.5 23.5 53t56 22.5t57 -22.5t24.5 -53.5t-24.5 -53.5t-57 -22.5t-56 23t-23.5 53.5z" />
<glyph unicode="&#xec;" horiz-adv-x="458" d="M47 1272q0 61 54 61q43 0 73 -73q48 -118 148 -173l-12 -18q-127 55 -195 113.5t-68 89.5zM51 840l250 131v-936h117v-35h-363v35h119v571q0 176 -14.5 204t-34 28t-68.5 -23z" />
<glyph unicode="&#xed;" horiz-adv-x="458" d="M51 840l250 131v-936h117v-35h-363v35h119v571q0 176 -14.5 204t-34 28t-68.5 -23zM118 1087q100 55 148 173q31 74 74 73q25 0 39 -15t14 -46t-67.5 -89.5t-194.5 -113.5z" />
<glyph unicode="&#xee;" horiz-adv-x="458" d="M0 1085q125 105 207 248h45q82 -143 207 -248l-12 -16q-123 59 -219 154q-90 -92 -215 -154zM51 840l250 131v-936h117v-35h-363v35h119v571q0 176 -14.5 204t-34 28t-68.5 -23z" />
<glyph unicode="&#xef;" horiz-adv-x="458" d="M16 1163.5q0 30.5 24 53t56.5 22.5t57 -22.5t24.5 -53.5t-24.5 -53.5t-57 -22.5t-56.5 23t-24 53.5zM51 840l250 131v-936h117v-35h-363v35h119v571q0 176 -14.5 204t-34 28t-68.5 -23zM281 1163.5q0 30.5 23.5 53t56 22.5t57 -22.5t24.5 -53.5t-24.5 -53.5t-57 -22.5 t-56 23t-23.5 53.5z" />
<glyph unicode="&#xf0;" horiz-adv-x="1030" d="M51 473q0 219 139.5 358.5t350.5 139.5l-4 -29q-147 0 -247 -126t-100 -340t83 -337t232 -123t254 121t105 324q0 268 -187 499q-71 87 -105.5 122.5t-122.5 125.5l-119 -116l-23 24l119 117q-108 108 -154.5 187t-46.5 166t43 157l27 -17q-16 -49 -16 -79.5t36.5 -88 t75.5 -98.5t129 -133l109 109l24 -23l-110 -108l96 -99q172 -180 251 -322.5t79 -351t-138.5 -378.5t-340 -170t-320.5 135t-119 354z" />
<glyph unicode="&#xf1;" horiz-adv-x="1085" d="M41 0v35h125v573q0 176 -14.5 204t-34 28t-68.5 -23l-6 25l250 131v-166q199 166 351 166t218 -84t66 -271v-583h110v-35h-362v35h125v583q0 160 -43 236t-135 76q-145 0 -330 -164v-731h113v-35h-365zM294 1141q23 33 78.5 73.5t94.5 40.5t103 -32.5t109 -32.5t93 47 l18 -18q-23 -33 -78 -74t-94 -41t-103.5 32.5t-109.5 32.5t-92 -47z" />
<glyph unicode="&#xf2;" horiz-adv-x="1021" d="M51 456.5q0 231.5 125 373t354 141.5q172 0 301.5 -121t129.5 -352t-124.5 -372.5t-355.5 -141.5q-174 0 -302 120.5t-128 352zM188 494.5q0 -226.5 82 -353.5t238 -127q315 0 315 451q0 221 -82 348t-232 127t-235.5 -109.5t-85.5 -336zM311 1272q0 61 54 61 q43 0 73 -73q48 -118 148 -173l-12 -18q-127 55 -195 113.5t-68 89.5z" />
<glyph unicode="&#xf3;" horiz-adv-x="1021" d="M51 456.5q0 231.5 125 373t354 141.5q172 0 301.5 -121t129.5 -352t-124.5 -372.5t-355.5 -141.5q-174 0 -302 120.5t-128 352zM188 494.5q0 -226.5 82 -353.5t238 -127q315 0 315 451q0 221 -82 348t-232 127t-235.5 -109.5t-85.5 -336zM434 1087q100 55 148 173 q31 74 74 73q25 0 39 -15t14 -46t-67.5 -89.5t-194.5 -113.5z" />
<glyph unicode="&#xf4;" horiz-adv-x="1021" d="M51 456.5q0 231.5 125 373t354 141.5q172 0 301.5 -121t129.5 -352t-124.5 -372.5t-355.5 -141.5q-174 0 -302 120.5t-128 352zM188 494.5q0 -226.5 82 -353.5t238 -127q315 0 315 451q0 221 -82 348t-232 127t-235.5 -109.5t-85.5 -336zM280 1085q125 105 207 248h45 q82 -143 207 -248l-12 -16q-123 59 -219 154q-90 -92 -215 -154z" />
<glyph unicode="&#xf5;" horiz-adv-x="1021" d="M51 456.5q0 231.5 125 373t354 141.5q172 0 301.5 -121t129.5 -352t-124.5 -372.5t-355.5 -141.5q-174 0 -302 120.5t-128 352zM188 494.5q0 -226.5 82 -353.5t238 -127q315 0 315 451q0 221 -82 348t-232 127t-235.5 -109.5t-85.5 -336zM262 1141q23 33 78.5 73.5 t94.5 40.5t103 -32.5t109 -32.5t93 47l18 -18q-23 -33 -78 -74t-94 -41t-103.5 32.5t-109.5 32.5t-92 -47z" />
<glyph unicode="&#xf6;" horiz-adv-x="1021" d="M51 456.5q0 231.5 125 373t354 141.5q172 0 301.5 -121t129.5 -352t-124.5 -372.5t-355.5 -141.5q-174 0 -302 120.5t-128 352zM188 494.5q0 -226.5 82 -353.5t238 -127q315 0 315 451q0 221 -82 348t-232 127t-235.5 -109.5t-85.5 -336zM297 1163.5q0 30.5 24 53 t56.5 22.5t57 -22.5t24.5 -53.5t-24.5 -53.5t-57 -22.5t-56.5 23t-24 53.5zM562 1163.5q0 30.5 23.5 53t56 22.5t57 -22.5t24.5 -53.5t-24.5 -53.5t-57 -22.5t-56 23t-23.5 53.5z" />
<glyph unicode="&#xf7;" horiz-adv-x="878" d="M61 412l60 100h682l-60 -100h-682zM336 192.5q0 36.5 30.5 65.5t70.5 29t70 -29t30 -65.5t-30 -64.5t-71 -28t-70.5 28t-29.5 64.5zM336 725q0 37 30.5 65.5t70.5 28.5t70 -28.5t30 -65.5t-30 -64.5t-71 -27.5t-70.5 27.5t-29.5 64.5z" />
<glyph unicode="&#xf8;" horiz-adv-x="1021" d="M51 477q0 211 125 352.5t354 141.5q47 0 86 -8l31 112h43l-33 -123q131 -39 217.5 -154.5t86.5 -323t-124.5 -349t-355.5 -141.5q-41 0 -78 6l-26 -103h-43l28 113q-135 35 -223 150.5t-88 326.5zM188 489q0 -352 187 -446l231 881q-49 16 -100 16q-147 0 -232.5 -110 t-85.5 -341zM414 29q41 -15 94 -15q315 0 315 451q0 338 -178 440z" />
<glyph unicode="&#xf9;" horiz-adv-x="1067" d="M20 840l254 135v-680q0 -158 48.5 -216.5t130.5 -58.5t169 50.5t150 115.5v500q0 90 -12 126t-45 36q-14 0 -70 -25l-6 25l262 123v-697q0 -131 19.5 -177t51.5 -46t85 53l14 -16q-106 -104 -171 -104q-119 0 -128 163q-66 -68 -163 -115.5t-169.5 -47.5t-115.5 11 t-87 42q-94 66 -94 266v340q0 195 -41 195q-27 0 -75 -23zM333 1272q0 61 54 61q43 0 73 -73q48 -118 148 -173l-12 -18q-127 55 -195 113.5t-68 89.5z" />
<glyph unicode="&#xfa;" horiz-adv-x="1067" d="M20 840l254 135v-680q0 -158 48.5 -216.5t130.5 -58.5t169 50.5t150 115.5v500q0 90 -12 126t-45 36q-14 0 -70 -25l-6 25l262 123v-697q0 -131 19.5 -177t51.5 -46t85 53l14 -16q-106 -104 -171 -104q-119 0 -128 163q-66 -68 -163 -115.5t-169.5 -47.5t-115.5 11 t-87 42q-94 66 -94 266v340q0 195 -41 195q-27 0 -75 -23zM477 1087q100 55 148 173q31 74 74 73q25 0 39 -15t14 -46t-67.5 -89.5t-194.5 -113.5z" />
<glyph unicode="&#xfb;" horiz-adv-x="1067" d="M20 840l254 135v-680q0 -158 48.5 -216.5t130.5 -58.5t169 50.5t150 115.5v500q0 90 -12 126t-45 36q-14 0 -70 -25l-6 25l262 123v-697q0 -131 19.5 -177t51.5 -46t85 53l14 -16q-106 -104 -171 -104q-119 0 -128 163q-66 -68 -163 -115.5t-169.5 -47.5t-115.5 11 t-87 42q-94 66 -94 266v340q0 195 -41 195q-27 0 -75 -23zM323 1085q125 105 207 248h45q82 -143 207 -248l-12 -16q-123 59 -219 154q-90 -92 -215 -154z" />
<glyph unicode="&#xfc;" horiz-adv-x="1067" d="M20 840l254 135v-680q0 -158 48.5 -216.5t130.5 -58.5t169 50.5t150 115.5v500q0 90 -12 126t-45 36q-14 0 -70 -25l-6 25l262 123v-697q0 -131 19.5 -177t51.5 -46t85 53l14 -16q-106 -104 -171 -104q-119 0 -128 163q-66 -68 -163 -115.5t-169.5 -47.5t-115.5 11 t-87 42q-94 66 -94 266v340q0 195 -41 195q-27 0 -75 -23zM340 1163.5q0 30.5 24 53t56.5 22.5t57 -22.5t24.5 -53.5t-24.5 -53.5t-57 -22.5t-56.5 23t-24 53.5zM605 1163.5q0 30.5 23.5 53t56 22.5t57 -22.5t24.5 -53.5t-24.5 -53.5t-57 -22.5t-56 23t-23.5 53.5z" />
<glyph unicode="&#xfd;" horiz-adv-x="892" d="M-39 -560q0 56 36 87t73 31t63.5 -23.5t26.5 -57.5t-14.5 -58.5t-14.5 -30.5q0 -23 16 -23q102 0 180.5 154.5t168.5 468.5l10 35l-103 -29l-217 639q-41 123 -68.5 166t-54 43t-71.5 -21l-12 25l213 125q40 -46 173.5 -454t149.5 -460l201 695q14 49 14 93t-30.5 59.5 t-86.5 15.5v34h295v-34q-57 0 -90 -37t-59 -129l-221 -770q-120 -427 -213 -552q-90 -122 -209 -122q-78 0 -117 37t-39 93zM391 1087q100 55 148 173q31 74 74 73q25 0 39 -15t14 -46t-67.5 -89.5t-194.5 -113.5z" />
<glyph unicode="&#xfe;" horiz-adv-x="1058" d="M0 2099l248 135l-2 -1343q164 80 313.5 80t252.5 -75q185 -135 185 -415q0 -219 -137 -358t-379 -139q-113 0 -235 49v-363q0 -233 53 -233q6 0 18 4l45 16l7 -24l-246 -131l-2 2560q0 233 -53 233q-6 0 -19 -4l-45 -18zM246 72q106 -55 235 -56q193 2 282 122t89 333 t-83 338t-247 125q-129 0 -276 -78v-784z" />
<glyph unicode="&#xff;" horiz-adv-x="892" d="M-39 -560q0 56 36 87t73 31t63.5 -23.5t26.5 -57.5t-14.5 -58.5t-14.5 -30.5q0 -23 16 -23q102 0 180.5 154.5t168.5 468.5l10 35l-103 -29l-217 639q-41 123 -68.5 166t-54 43t-71.5 -21l-12 25l213 125q40 -46 173.5 -454t149.5 -460l201 695q14 49 14 93t-30.5 59.5 t-86.5 15.5v34h295v-34q-57 0 -90 -37t-59 -129l-221 -770q-120 -427 -213 -552q-90 -122 -209 -122q-78 0 -117 37t-39 93zM254 1163.5q0 30.5 24 53t56.5 22.5t57 -22.5t24.5 -53.5t-24.5 -53.5t-57 -22.5t-56.5 23t-24 53.5zM519 1163.5q0 30.5 23.5 53t56 22.5t57 -22.5 t24.5 -53.5t-24.5 -53.5t-57 -22.5t-56 23t-23.5 53.5z" />
<glyph unicode="&#x152;" horiz-adv-x="3168" d="M72 626q0 175 39 325.5t119.5 287.5t194.5 241.5t275.5 167t348.5 62.5q246 0 460.5 -120t337.5 -345l2 391h-118v39h1187q104 0 129 68h39v-428h-41q0 218 -61 275q-33 30 -66.5 38t-95.5 8h-831v-778h481q90 4 90 113h43l68 -400h-39q-39 125 -65.5 175.5t-53.5 61.5 t-94 11h-430v-1108h888q106 0 156.5 67.5t50.5 274.5h41v-448h-39q-25 68 -141 67h-1216v39h116v436q-121 -231 -336 -370t-510 -139q-296 0 -528 162q-252 176 -349 485q-52 166 -52 341zM236 680.5q0 -452.5 210.5 -729.5t569 -277t579 273.5t220.5 727t-205 726 t-564.5 272.5t-584.5 -270t-225 -722.5z" />
<glyph unicode="&#x153;" horiz-adv-x="1742" d="M51 456.5q0 231.5 125 373t354 141.5q113 0 213.5 -54.5t157.5 -162.5q63 104 169 160.5t216 56.5t187 -37t115 -100q71 -116 71 -252h-580v34h357q41 0 54 21.5t13 60.5q0 96 -56 169t-163 73q-137 0 -225 -109.5t-88 -343.5q0 -273 123 -379q107 -92 260 -92t299 86 l18 -26q-158 -92 -354 -92q-123 0 -242 51t-186 164q-123 -215 -408 -215q-174 0 -302 120.5t-128 352zM188 494.5q0 -226.5 82 -353.5t238 -127q315 0 315 451q0 221 -82 348t-232 127t-235.5 -109.5t-85.5 -336z" />
<glyph unicode="&#x178;" horiz-adv-x="1540" d="M41 1640v35h387v-35h-121l492 -1022l407 828q47 94 47 129t-28.5 48t-98.5 13h-14v39h387v-39q-90 0 -135 -35.5t-94 -134.5l-443 -895l4 -860h121v-39h-387v39h119l6 803l-534 1126h-115zM557 1935.5q0 30.5 24 53t56.5 22.5t57 -22.5t24.5 -53.5t-24.5 -53.5t-57 -22.5 t-56.5 23t-24 53.5zM822 1935.5q0 30.5 23.5 53t56 22.5t57 -22.5t24.5 -53.5t-24.5 -53.5t-57 -22.5t-56 23t-23.5 53.5z" />
<glyph unicode="&#x2c6;" horiz-adv-x="581" d="M61 1085q125 105 207 248h45q82 -143 207 -248l-12 -16q-123 59 -219 154q-90 -92 -215 -154z" />
<glyph unicode="&#x2dc;" horiz-adv-x="618" d="M61 1141q23 33 78.5 73.5t94.5 40.5t103 -32.5t109 -32.5t93 47l18 -18q-23 -33 -78 -74t-94 -41t-103.5 32.5t-109.5 32.5t-92 -47z" />
<glyph unicode="&#x2000;" horiz-adv-x="1117" />
<glyph unicode="&#x2001;" horiz-adv-x="2234" />
<glyph unicode="&#x2002;" horiz-adv-x="1117" />
<glyph unicode="&#x2003;" horiz-adv-x="2234" />
<glyph unicode="&#x2004;" horiz-adv-x="744" />
<glyph unicode="&#x2005;" horiz-adv-x="558" />
<glyph unicode="&#x2006;" horiz-adv-x="372" />
<glyph unicode="&#x2007;" horiz-adv-x="372" />
<glyph unicode="&#x2008;" horiz-adv-x="279" />
<glyph unicode="&#x2009;" horiz-adv-x="446" />
<glyph unicode="&#x200a;" horiz-adv-x="124" />
<glyph unicode="&#x2010;" horiz-adv-x="761" d="M61 410l60 104h579l-59 -104h-580z" />
<glyph unicode="&#x2011;" horiz-adv-x="761" d="M61 410l60 104h579l-59 -104h-580z" />
<glyph unicode="&#x2012;" horiz-adv-x="761" d="M61 410l60 104h579l-59 -104h-580z" />
<glyph unicode="&#x2013;" horiz-adv-x="765" d="M61 410v41h644v-41h-644z" />
<glyph unicode="&#x2014;" horiz-adv-x="1073" d="M61 410v41h951v-41h-951z" />
<glyph unicode="&#x2018;" horiz-adv-x="335" d="M61 1416.5q0 64.5 55.5 153.5t133.5 156l16 -18q-57 -49 -99 -117.5t-46 -109.5q18 6 56 6t67.5 -28.5t29.5 -68.5t-28.5 -70t-75.5 -30t-78 31t-31 95.5z" />
<glyph unicode="&#x2019;" horiz-adv-x="335" d="M61 1611q0 40 29 69.5t76 29.5t77.5 -30.5t30.5 -95.5t-55 -154t-133 -156l-16 18q57 49 99 118t46 110q-18 -6 -56 -6.5t-68 28.5t-30 69z" />
<glyph unicode="&#x201a;" horiz-adv-x="335" d="M61 79q0 40 29 69.5t76 29.5t77.5 -30.5t30.5 -95.5t-55 -154t-133 -156l-16 18q57 49 99 118t46 110q-18 -6 -56 -6.5t-68 28.5t-30 69z" />
<glyph unicode="&#x201c;" horiz-adv-x="616" d="M61 1416.5q0 64.5 55.5 153.5t133.5 156l16 -18q-57 -49 -99 -117.5t-46 -109.5q18 6 56 6t67.5 -28.5t29.5 -68.5t-28.5 -70t-75.5 -30t-78 31t-31 95.5zM342 1416.5q0 64.5 55.5 153.5t132.5 156l17 -18q-57 -49 -99.5 -117.5t-46.5 -109.5q18 6 56 6t68 -28.5 t30 -68.5t-27.5 -70t-75.5 -30t-79 31t-31 95.5z" />
<glyph unicode="&#x201d;" horiz-adv-x="616" d="M61 1611q0 40 29 69.5t76 29.5t77.5 -30.5t30.5 -95.5t-55 -154t-133 -156l-16 18q57 49 99 118t46 110q-18 -6 -56 -6.5t-68 28.5t-30 69zM342 1611q0 40 27.5 69.5t75.5 29.5t79 -30.5t31 -95.5t-55.5 -154t-132.5 -156l-17 18q57 49 99.5 118t46.5 110 q-18 -6 -56 -6.5t-68 28.5t-30 69z" />
<glyph unicode="&#x201e;" horiz-adv-x="616" d="M61 79q0 40 29 69.5t76 29.5t77.5 -30.5t30.5 -95.5t-55 -154t-133 -156l-16 18q57 49 99 118t46 110q-18 -6 -56 -6.5t-68 28.5t-30 69zM342 79q0 40 27.5 69.5t75.5 29.5t79 -30.5t31 -95.5t-55.5 -154t-132.5 -156l-17 18q57 49 99.5 118t46.5 110q-18 -6 -56 -6.5 t-68 28.5t-30 69z" />
<glyph unicode="&#x2022;" horiz-adv-x="481" d="M61 460.5q0 65.5 53.5 116t126.5 50.5t126 -50.5t53 -116t-52.5 -113.5t-126 -48t-127 48t-53.5 113.5z" />
<glyph unicode="&#x2026;" horiz-adv-x="1007" d="M61 80q0 39 32 68.5t75 29.5t74.5 -29.5t31.5 -68.5t-30.5 -67.5t-74.5 -28.5t-76 28.5t-32 67.5zM397 80q0 39 32 68.5t75 29.5t74.5 -29.5t31.5 -68.5t-30.5 -67.5t-74.5 -28.5t-76 28.5t-32 67.5zM733 80q0 39 32 68.5t75 29.5t74.5 -29.5t31.5 -68.5t-30.5 -67.5 t-74.5 -28.5t-76 28.5t-32 67.5z" />
<glyph unicode="&#x202f;" horiz-adv-x="446" />
<glyph unicode="&#x2039;" horiz-adv-x="372" d="M41 430v62q156 133 246 272l24 -16q-74 -150 -178 -287q104 -137 178 -287l-24 -16q-90 139 -246 272z" />
<glyph unicode="&#x203a;" horiz-adv-x="372" d="M61 174q74 150 179 287q-104 137 -179 287l25 16q90 -139 246 -272v-62q-156 -133 -246 -272z" />
<glyph unicode="&#x205f;" horiz-adv-x="558" />
<glyph unicode="&#x20ac;" horiz-adv-x="1275" d="M61 650q0 380 203 590t508 210q184 0 308 -75t124 -187q0 -61 -31.5 -93t-70.5 -32t-61.5 21.5t-22.5 57.5t33 58q23 18 22 39q0 80 -80 131t-219 51q-240 0 -384 -147.5t-171 -454.5h557l-20 -37h-539q-2 -33 -2 -108.5t6 -149.5h555l-20 -37h-531q70 -563 549 -563 q225 0 414 133l16 -30q-195 -145 -469 -146q-324 0 -499 194.5t-175 574.5z" />
<glyph unicode="&#x2122;" horiz-adv-x="1402" d="M61 1327v242h25q18 -41 94 -41h328q61 0 80 41h24v-242h-26q0 109 -36 142.5t-112 33.5h-59v-600h74v-26h-234v26h76v600h-59q-76 0 -112 -33.5t-36 -142.5h-27zM678 877v26q59 0 73.5 31t14.5 147v404l-53 -17l-11 23l132 74l190 -400l162 363h155v-27h-63v-598h63v-26 h-215v26h68v572l-182 -410h-31l-184 391v-428q0 -80 16 -102.5t72 -22.5v-26h-207z" />
<glyph unicode="&#xe000;" horiz-adv-x="972" d="M0 0v973h973v-973h-973z" />
</font>
</defs>
</svg>
